M48
; DRILL file {KiCad 9.0.0} date 2026-04-10T08:59:48+0200
; FORMAT={-:-/ absolute / metric / decimal}
; #@! TF.CreationDate,2026-04-10T08:59:48+02:00
; #@! TF.GenerationSoftware,Kicad,Pcbnew,9.0.0
; #@! TF.FileFunction,Plated,1,4,PTH
FMAT,2
METRIC
; #@! TA.AperFunction,Plated,PTH,ViaDrill
T1C0.300
; #@! TA.AperFunction,Plated,PTH,ComponentDrill
T2C0.300
; #@! TA.AperFunction,Plated,PTH,ComponentDrill
T3C0.600
; #@! TA.AperFunction,Plated,PTH,ComponentDrill
T4C0.700
; #@! TA.AperFunction,Plated,PTH,ComponentDrill
T5C1.020
%
G90
G05
T1
X122.1Y-73.34
X122.1Y-78.44
X122.1Y-83.54
X122.1Y-86.94
X122.1Y-92.04
X122.1Y-95.44
X122.1Y-98.84
X122.1Y-102.24
X122.1Y-105.64
X122.1Y-109.04
X122.1Y-112.44
X122.1Y-115.84
X123.49Y-91.1
X124.839Y-82.035
X124.89Y-97.86
X124.95Y-91.1
X124.95Y-94.78
X125.739Y-82.035
X125.83Y-88.535
X125.85Y-73.34
X125.85Y-115.84
X126.639Y-82.035
X126.734Y-88.535
X126.795Y-84.025
X126.795Y-87.025
X127.52Y-95.367
X127.72Y-93.66
X127.72Y-105.66
X127.79Y-98.36
X128.79Y-98.36
X128.98Y-95.367
X129.6Y-115.84
X129.79Y-98.36
X129.935Y-82.73
X130.41Y-80.59
X130.44Y-95.367
X130.67Y-84.74
X130.675Y-76.08
X130.675Y-76.98
X130.675Y-77.88
X130.79Y-98.36
X131.41Y-89.42
X131.48Y-86.03
X131.48Y-91.37
X131.645Y-79.835
X131.72Y-93.66
X131.72Y-101.66
X131.72Y-105.66
X131.72Y-109.66
X131.72Y-113.66
X131.76Y-88.53
X131.79Y-98.36
X131.9Y-95.367
X132.295Y-78.01
X132.295Y-85.935
X132.57Y-82.26
X132.57Y-83.06
X132.57Y-83.86
X132.63Y-88.22
X132.79Y-98.36
X133.303Y-81.44
X133.35Y-73.34
X133.35Y-115.84
X133.37Y-82.26
X133.37Y-83.06
X133.37Y-83.86
X133.65Y-91.51
X133.82Y-97.905
X133.92Y-85.92
X133.99Y-84.92
X134.014Y-81.416
X134.36Y-95.855
X134.36Y-98.375
X134.795Y-80.655
X134.89Y-91.21
X134.92Y-97.1
X134.93Y-86.7
X135.295Y-78.01
X135.44Y-80.81
X135.72Y-105.66
X135.922Y-97.075
X136.15Y-100.035
X136.15Y-101.0
X136.42Y-92.69
X136.72Y-97.23
X136.72Y-97.93
X137.1Y-73.34
X137.1Y-115.84
X137.295Y-76.975
X137.295Y-77.879
X137.72Y-97.23
X137.72Y-97.93
X138.14Y-103.2
X138.15Y-79.87
X138.16Y-95.775
X138.395Y-80.785
X138.52Y-84.13
X138.52Y-84.93
X138.69Y-94.895
X138.97Y-100.015
X138.97Y-101.135
X139.32Y-84.13
X139.32Y-84.93
X139.56Y-79.83
X139.69Y-94.895
X139.69Y-97.135
X139.69Y-98.055
X139.72Y-109.66
X139.72Y-113.66
X139.985Y-74.73
X139.985Y-76.19
X140.12Y-84.13
X140.12Y-84.93
X140.49Y-92.02
X140.51Y-93.79
X140.69Y-94.895
X140.85Y-73.34
X140.85Y-115.84
X141.02Y-92.55
X141.15Y-97.135
X141.15Y-98.055
X141.24Y-89.2
X141.5Y-87.85
X141.61Y-79.11
X141.61Y-84.99
X141.69Y-94.895
X142.2Y-81.93
X142.2Y-82.73
X142.225Y-90.83
X142.23Y-92.54
X142.61Y-97.135
X142.61Y-98.055
X142.69Y-94.895
X143.0Y-81.93
X143.02Y-82.73
X143.42Y-89.625
X143.43Y-90.83
X143.54Y-76.19
X143.6Y-86.42
X143.69Y-94.895
X143.72Y-101.66
X143.72Y-105.66
X143.72Y-109.66
X144.6Y-115.84
X144.65Y-93.92
X144.88Y-80.81
X145.5Y-92.69
X145.955Y-113.03
X146.248Y-97.96
X147.18Y-91.8
X147.18Y-92.58
X147.25Y-97.86
X147.72Y-101.66
X147.72Y-105.66
X147.93Y-87.95
X148.03Y-86.95
X148.03Y-88.95
X148.248Y-97.96
X148.248Y-99.61
X148.35Y-73.34
X148.35Y-115.84
X148.395Y-113.03
X149.25Y-97.86
X149.4Y-86.33
X149.635Y-106.355
X150.248Y-97.96
X150.73Y-86.55
X150.935Y-113.03
X151.185Y-99.655
X151.3Y-80.85
X151.32Y-77.24
X151.35Y-87.62
X151.545Y-105.685
X151.765Y-92.0
X151.765Y-92.82
X151.765Y-93.51
X151.765Y-94.41
X152.1Y-115.84
X153.075Y-105.185
X153.205Y-96.275
X153.415Y-92.12
X153.425Y-94.3
X153.475Y-113.03
X154.1Y-73.34
X154.18Y-75.08
X154.34Y-104.9
X154.75Y-87.35
X155.49Y-104.87
X155.7Y-80.83
X155.795Y-87.48
X155.795Y-88.08
X155.795Y-88.68
X155.85Y-115.84
X156.015Y-113.03
X156.8Y-86.93
X157.055Y-103.53
X157.17Y-98.9
X157.17Y-100.14
X157.43Y-86.93
X157.525Y-89.23
X158.125Y-98.9
X158.13Y-100.14
X158.555Y-107.53
X158.555Y-113.03
X158.99Y-98.9
X158.99Y-100.14
X159.3Y-80.85
X159.6Y-115.84
X160.055Y-103.53
X160.73Y-73.34
X160.785Y-100.17
X161.095Y-113.03
X161.6Y-88.89
X161.63Y-104.87
X161.83Y-87.48
X161.83Y-88.19
X162.46Y-90.2
X162.78Y-104.9
X163.01Y-95.26
X163.085Y-87.8
X163.3Y-80.85
X163.32Y-77.24
X163.35Y-115.84
X163.6Y-89.52
X163.635Y-113.03
X164.04Y-105.18
X164.52Y-89.52
X164.76Y-91.11
X165.35Y-90.78
X165.57Y-105.68
X165.81Y-73.34
X166.175Y-113.03
X166.49Y-83.59
X167.1Y-115.84
X167.32Y-77.24
X167.48Y-106.35
X167.83Y-89.82
X168.59Y-93.38
X168.715Y-113.03
X170.04Y-106.99
X170.4Y-81.99
X170.85Y-115.84
X170.89Y-73.34
X171.255Y-113.03
X171.32Y-77.24
X173.97Y-84.02
X173.97Y-86.52
X174.6Y-115.84
X176.75Y-111.76
X178.3Y-82.88
X178.3Y-86.88
X178.35Y-73.34
X178.35Y-115.84
X179.345Y-106.16
X180.305Y-105.4
X180.75Y-95.76
X180.75Y-99.76
X180.75Y-103.76
X180.75Y-111.76
X181.19Y-90.13
X181.19Y-90.93
X181.19Y-91.73
X181.78Y-93.19
X181.99Y-90.13
X181.99Y-90.93
X181.99Y-91.73
X182.1Y-73.34
X182.1Y-115.84
X182.3Y-82.88
X182.3Y-86.88
X182.91Y-95.67
X183.69Y-104.97
X184.75Y-103.76
X184.75Y-111.76
X185.03Y-92.17
X185.03Y-95.17
X185.06Y-90.68
X185.06Y-97.18
X185.85Y-73.34
X185.85Y-115.84
X185.96Y-97.18
X185.964Y-90.68
X186.3Y-82.88
X186.75Y-87.99
X186.86Y-97.18
X188.21Y-87.99
X189.6Y-73.34
X189.6Y-76.74
X189.6Y-80.14
X189.6Y-83.54
X189.6Y-86.94
X189.6Y-92.04
X189.6Y-95.44
X189.6Y-102.24
X189.6Y-105.64
X189.6Y-109.04
X189.6Y-112.44
X189.6Y-115.84
T2
X156.36Y-91.31
X156.36Y-92.41
X156.36Y-93.51
X156.36Y-94.61
X156.36Y-95.71
X157.46Y-91.31
X157.46Y-95.71
X158.56Y-91.31
X158.56Y-95.71
X159.66Y-91.31
X159.66Y-95.71
X160.76Y-91.31
X160.76Y-92.41
X160.76Y-93.51
X160.76Y-94.61
X160.76Y-95.71
T5
X125.65Y-102.54
X125.65Y-109.14
X125.65Y-111.68
X128.19Y-102.54
X128.19Y-109.14
X128.19Y-111.68
X134.8Y-109.14
X134.8Y-111.68
X144.585Y-113.83
X147.125Y-113.83
X149.665Y-113.83
X152.205Y-113.83
X154.745Y-113.83
X156.92Y-74.09
X157.285Y-113.83
X159.46Y-74.09
X159.825Y-113.83
X162.0Y-74.09
X162.365Y-113.83
X164.54Y-74.09
X164.905Y-113.83
X167.08Y-74.09
X167.445Y-113.83
X169.62Y-74.09
X169.985Y-113.83
X172.16Y-74.09
X172.525Y-113.83
X174.7Y-74.09
T3
G00X123.55Y-80.965
M15
G01X122.35Y-80.965
M16
G05
G00X123.55Y-89.605
M15
G01X122.35Y-89.605
M16
G05
G00X127.35Y-80.965
M15
G01X126.55Y-80.965
M16
G05
G00X127.35Y-89.605
M15
G01X126.55Y-89.605
M16
G05
G00X129.725Y-74.79
M15
G01X129.725Y-73.59
M16
G05
G00X129.725Y-78.59
M15
G01X129.725Y-77.79
M16
G05
G00X138.365Y-74.79
M15
G01X138.365Y-73.59
M16
G05
G00X138.365Y-78.59
M15
G01X138.365Y-77.79
M16
G05
G00X184.35Y-89.61
M15
G01X185.15Y-89.61
M16
G05
G00X184.35Y-98.25
M15
G01X185.15Y-98.25
M16
G05
G00X188.15Y-89.61
M15
G01X189.35Y-89.61
M16
G05
G00X188.15Y-98.25
M15
G01X189.35Y-98.25
M16
G05
T4
G00X147.19Y-75.34
M15
G01X147.19Y-74.34
M16
G05
G00X147.19Y-78.34
M15
G01X147.19Y-77.34
M16
G05
G00X147.19Y-81.34
M15
G01X147.19Y-80.34
M16
G05
M30
