%TF.GenerationSoftware,KiCad,Pcbnew,9.0.0*%
%TF.CreationDate,2026-04-10T08:59:47+02:00*%
%TF.ProjectId,PIC_DEMO,5049435f-4445-44d4-9f2e-6b696361645f,rev?*%
%TF.SameCoordinates,Original*%
%TF.FileFunction,Soldermask,Bot*%
%TF.FilePolarity,Negative*%
%FSLAX46Y46*%
G04 Gerber Fmt 4.6, Leading zero omitted, Abs format (unit mm)*
G04 Created by KiCad (PCBNEW 9.0.0) date 2026-04-10 08:59:47*
%MOMM*%
%LPD*%
G01*
G04 APERTURE LIST*
G04 APERTURE END LIST*
G36*
X145435000Y-114680000D02*
G01*
X143735000Y-114680000D01*
X143735000Y-112980000D01*
X145435000Y-112980000D01*
X145435000Y-114680000D01*
G37*
G36*
X147235947Y-112987272D02*
G01*
X147308974Y-113000148D01*
X147380600Y-113019341D01*
X147450281Y-113044702D01*
X147517486Y-113076041D01*
X147581705Y-113113117D01*
X147642447Y-113155650D01*
X147699252Y-113203314D01*
X147751686Y-113255748D01*
X147799350Y-113312553D01*
X147841883Y-113373295D01*
X147878959Y-113437514D01*
X147910298Y-113504719D01*
X147935659Y-113574400D01*
X147954852Y-113646026D01*
X147967728Y-113719053D01*
X147974191Y-113792924D01*
X147974191Y-113867076D01*
X147967728Y-113940947D01*
X147954852Y-114013974D01*
X147935659Y-114085600D01*
X147910298Y-114155281D01*
X147878959Y-114222486D01*
X147841883Y-114286705D01*
X147799350Y-114347447D01*
X147751686Y-114404252D01*
X147699252Y-114456686D01*
X147642447Y-114504350D01*
X147581705Y-114546883D01*
X147517486Y-114583959D01*
X147450281Y-114615298D01*
X147380600Y-114640659D01*
X147308974Y-114659852D01*
X147235947Y-114672728D01*
X147162076Y-114679191D01*
X147087924Y-114679191D01*
X147014053Y-114672728D01*
X146941026Y-114659852D01*
X146869400Y-114640659D01*
X146799719Y-114615298D01*
X146732514Y-114583959D01*
X146668295Y-114546883D01*
X146607553Y-114504350D01*
X146550748Y-114456686D01*
X146498314Y-114404252D01*
X146450650Y-114347447D01*
X146408117Y-114286705D01*
X146371041Y-114222486D01*
X146339702Y-114155281D01*
X146314341Y-114085600D01*
X146295148Y-114013974D01*
X146282272Y-113940947D01*
X146275809Y-113867076D01*
X146275809Y-113792924D01*
X146282272Y-113719053D01*
X146295148Y-113646026D01*
X146314341Y-113574400D01*
X146339702Y-113504719D01*
X146371041Y-113437514D01*
X146408117Y-113373295D01*
X146450650Y-113312553D01*
X146498314Y-113255748D01*
X146550748Y-113203314D01*
X146607553Y-113155650D01*
X146668295Y-113113117D01*
X146732514Y-113076041D01*
X146799719Y-113044702D01*
X146869400Y-113019341D01*
X146941026Y-113000148D01*
X147014053Y-112987272D01*
X147087924Y-112980809D01*
X147162076Y-112980809D01*
X147235947Y-112987272D01*
G37*
G36*
X149775947Y-112987272D02*
G01*
X149848974Y-113000148D01*
X149920600Y-113019341D01*
X149990281Y-113044702D01*
X150057486Y-113076041D01*
X150121705Y-113113117D01*
X150182447Y-113155650D01*
X150239252Y-113203314D01*
X150291686Y-113255748D01*
X150339350Y-113312553D01*
X150381883Y-113373295D01*
X150418959Y-113437514D01*
X150450298Y-113504719D01*
X150475659Y-113574400D01*
X150494852Y-113646026D01*
X150507728Y-113719053D01*
X150514191Y-113792924D01*
X150514191Y-113867076D01*
X150507728Y-113940947D01*
X150494852Y-114013974D01*
X150475659Y-114085600D01*
X150450298Y-114155281D01*
X150418959Y-114222486D01*
X150381883Y-114286705D01*
X150339350Y-114347447D01*
X150291686Y-114404252D01*
X150239252Y-114456686D01*
X150182447Y-114504350D01*
X150121705Y-114546883D01*
X150057486Y-114583959D01*
X149990281Y-114615298D01*
X149920600Y-114640659D01*
X149848974Y-114659852D01*
X149775947Y-114672728D01*
X149702076Y-114679191D01*
X149627924Y-114679191D01*
X149554053Y-114672728D01*
X149481026Y-114659852D01*
X149409400Y-114640659D01*
X149339719Y-114615298D01*
X149272514Y-114583959D01*
X149208295Y-114546883D01*
X149147553Y-114504350D01*
X149090748Y-114456686D01*
X149038314Y-114404252D01*
X148990650Y-114347447D01*
X148948117Y-114286705D01*
X148911041Y-114222486D01*
X148879702Y-114155281D01*
X148854341Y-114085600D01*
X148835148Y-114013974D01*
X148822272Y-113940947D01*
X148815809Y-113867076D01*
X148815809Y-113792924D01*
X148822272Y-113719053D01*
X148835148Y-113646026D01*
X148854341Y-113574400D01*
X148879702Y-113504719D01*
X148911041Y-113437514D01*
X148948117Y-113373295D01*
X148990650Y-113312553D01*
X149038314Y-113255748D01*
X149090748Y-113203314D01*
X149147553Y-113155650D01*
X149208295Y-113113117D01*
X149272514Y-113076041D01*
X149339719Y-113044702D01*
X149409400Y-113019341D01*
X149481026Y-113000148D01*
X149554053Y-112987272D01*
X149627924Y-112980809D01*
X149702076Y-112980809D01*
X149775947Y-112987272D01*
G37*
G36*
X152315947Y-112987272D02*
G01*
X152388974Y-113000148D01*
X152460600Y-113019341D01*
X152530281Y-113044702D01*
X152597486Y-113076041D01*
X152661705Y-113113117D01*
X152722447Y-113155650D01*
X152779252Y-113203314D01*
X152831686Y-113255748D01*
X152879350Y-113312553D01*
X152921883Y-113373295D01*
X152958959Y-113437514D01*
X152990298Y-113504719D01*
X153015659Y-113574400D01*
X153034852Y-113646026D01*
X153047728Y-113719053D01*
X153054191Y-113792924D01*
X153054191Y-113867076D01*
X153047728Y-113940947D01*
X153034852Y-114013974D01*
X153015659Y-114085600D01*
X152990298Y-114155281D01*
X152958959Y-114222486D01*
X152921883Y-114286705D01*
X152879350Y-114347447D01*
X152831686Y-114404252D01*
X152779252Y-114456686D01*
X152722447Y-114504350D01*
X152661705Y-114546883D01*
X152597486Y-114583959D01*
X152530281Y-114615298D01*
X152460600Y-114640659D01*
X152388974Y-114659852D01*
X152315947Y-114672728D01*
X152242076Y-114679191D01*
X152167924Y-114679191D01*
X152094053Y-114672728D01*
X152021026Y-114659852D01*
X151949400Y-114640659D01*
X151879719Y-114615298D01*
X151812514Y-114583959D01*
X151748295Y-114546883D01*
X151687553Y-114504350D01*
X151630748Y-114456686D01*
X151578314Y-114404252D01*
X151530650Y-114347447D01*
X151488117Y-114286705D01*
X151451041Y-114222486D01*
X151419702Y-114155281D01*
X151394341Y-114085600D01*
X151375148Y-114013974D01*
X151362272Y-113940947D01*
X151355809Y-113867076D01*
X151355809Y-113792924D01*
X151362272Y-113719053D01*
X151375148Y-113646026D01*
X151394341Y-113574400D01*
X151419702Y-113504719D01*
X151451041Y-113437514D01*
X151488117Y-113373295D01*
X151530650Y-113312553D01*
X151578314Y-113255748D01*
X151630748Y-113203314D01*
X151687553Y-113155650D01*
X151748295Y-113113117D01*
X151812514Y-113076041D01*
X151879719Y-113044702D01*
X151949400Y-113019341D01*
X152021026Y-113000148D01*
X152094053Y-112987272D01*
X152167924Y-112980809D01*
X152242076Y-112980809D01*
X152315947Y-112987272D01*
G37*
G36*
X154855947Y-112987272D02*
G01*
X154928974Y-113000148D01*
X155000600Y-113019341D01*
X155070281Y-113044702D01*
X155137486Y-113076041D01*
X155201705Y-113113117D01*
X155262447Y-113155650D01*
X155319252Y-113203314D01*
X155371686Y-113255748D01*
X155419350Y-113312553D01*
X155461883Y-113373295D01*
X155498959Y-113437514D01*
X155530298Y-113504719D01*
X155555659Y-113574400D01*
X155574852Y-113646026D01*
X155587728Y-113719053D01*
X155594191Y-113792924D01*
X155594191Y-113867076D01*
X155587728Y-113940947D01*
X155574852Y-114013974D01*
X155555659Y-114085600D01*
X155530298Y-114155281D01*
X155498959Y-114222486D01*
X155461883Y-114286705D01*
X155419350Y-114347447D01*
X155371686Y-114404252D01*
X155319252Y-114456686D01*
X155262447Y-114504350D01*
X155201705Y-114546883D01*
X155137486Y-114583959D01*
X155070281Y-114615298D01*
X155000600Y-114640659D01*
X154928974Y-114659852D01*
X154855947Y-114672728D01*
X154782076Y-114679191D01*
X154707924Y-114679191D01*
X154634053Y-114672728D01*
X154561026Y-114659852D01*
X154489400Y-114640659D01*
X154419719Y-114615298D01*
X154352514Y-114583959D01*
X154288295Y-114546883D01*
X154227553Y-114504350D01*
X154170748Y-114456686D01*
X154118314Y-114404252D01*
X154070650Y-114347447D01*
X154028117Y-114286705D01*
X153991041Y-114222486D01*
X153959702Y-114155281D01*
X153934341Y-114085600D01*
X153915148Y-114013974D01*
X153902272Y-113940947D01*
X153895809Y-113867076D01*
X153895809Y-113792924D01*
X153902272Y-113719053D01*
X153915148Y-113646026D01*
X153934341Y-113574400D01*
X153959702Y-113504719D01*
X153991041Y-113437514D01*
X154028117Y-113373295D01*
X154070650Y-113312553D01*
X154118314Y-113255748D01*
X154170748Y-113203314D01*
X154227553Y-113155650D01*
X154288295Y-113113117D01*
X154352514Y-113076041D01*
X154419719Y-113044702D01*
X154489400Y-113019341D01*
X154561026Y-113000148D01*
X154634053Y-112987272D01*
X154707924Y-112980809D01*
X154782076Y-112980809D01*
X154855947Y-112987272D01*
G37*
G36*
X157395947Y-112987272D02*
G01*
X157468974Y-113000148D01*
X157540600Y-113019341D01*
X157610281Y-113044702D01*
X157677486Y-113076041D01*
X157741705Y-113113117D01*
X157802447Y-113155650D01*
X157859252Y-113203314D01*
X157911686Y-113255748D01*
X157959350Y-113312553D01*
X158001883Y-113373295D01*
X158038959Y-113437514D01*
X158070298Y-113504719D01*
X158095659Y-113574400D01*
X158114852Y-113646026D01*
X158127728Y-113719053D01*
X158134191Y-113792924D01*
X158134191Y-113867076D01*
X158127728Y-113940947D01*
X158114852Y-114013974D01*
X158095659Y-114085600D01*
X158070298Y-114155281D01*
X158038959Y-114222486D01*
X158001883Y-114286705D01*
X157959350Y-114347447D01*
X157911686Y-114404252D01*
X157859252Y-114456686D01*
X157802447Y-114504350D01*
X157741705Y-114546883D01*
X157677486Y-114583959D01*
X157610281Y-114615298D01*
X157540600Y-114640659D01*
X157468974Y-114659852D01*
X157395947Y-114672728D01*
X157322076Y-114679191D01*
X157247924Y-114679191D01*
X157174053Y-114672728D01*
X157101026Y-114659852D01*
X157029400Y-114640659D01*
X156959719Y-114615298D01*
X156892514Y-114583959D01*
X156828295Y-114546883D01*
X156767553Y-114504350D01*
X156710748Y-114456686D01*
X156658314Y-114404252D01*
X156610650Y-114347447D01*
X156568117Y-114286705D01*
X156531041Y-114222486D01*
X156499702Y-114155281D01*
X156474341Y-114085600D01*
X156455148Y-114013974D01*
X156442272Y-113940947D01*
X156435809Y-113867076D01*
X156435809Y-113792924D01*
X156442272Y-113719053D01*
X156455148Y-113646026D01*
X156474341Y-113574400D01*
X156499702Y-113504719D01*
X156531041Y-113437514D01*
X156568117Y-113373295D01*
X156610650Y-113312553D01*
X156658314Y-113255748D01*
X156710748Y-113203314D01*
X156767553Y-113155650D01*
X156828295Y-113113117D01*
X156892514Y-113076041D01*
X156959719Y-113044702D01*
X157029400Y-113019341D01*
X157101026Y-113000148D01*
X157174053Y-112987272D01*
X157247924Y-112980809D01*
X157322076Y-112980809D01*
X157395947Y-112987272D01*
G37*
G36*
X159935947Y-112987272D02*
G01*
X160008974Y-113000148D01*
X160080600Y-113019341D01*
X160150281Y-113044702D01*
X160217486Y-113076041D01*
X160281705Y-113113117D01*
X160342447Y-113155650D01*
X160399252Y-113203314D01*
X160451686Y-113255748D01*
X160499350Y-113312553D01*
X160541883Y-113373295D01*
X160578959Y-113437514D01*
X160610298Y-113504719D01*
X160635659Y-113574400D01*
X160654852Y-113646026D01*
X160667728Y-113719053D01*
X160674191Y-113792924D01*
X160674191Y-113867076D01*
X160667728Y-113940947D01*
X160654852Y-114013974D01*
X160635659Y-114085600D01*
X160610298Y-114155281D01*
X160578959Y-114222486D01*
X160541883Y-114286705D01*
X160499350Y-114347447D01*
X160451686Y-114404252D01*
X160399252Y-114456686D01*
X160342447Y-114504350D01*
X160281705Y-114546883D01*
X160217486Y-114583959D01*
X160150281Y-114615298D01*
X160080600Y-114640659D01*
X160008974Y-114659852D01*
X159935947Y-114672728D01*
X159862076Y-114679191D01*
X159787924Y-114679191D01*
X159714053Y-114672728D01*
X159641026Y-114659852D01*
X159569400Y-114640659D01*
X159499719Y-114615298D01*
X159432514Y-114583959D01*
X159368295Y-114546883D01*
X159307553Y-114504350D01*
X159250748Y-114456686D01*
X159198314Y-114404252D01*
X159150650Y-114347447D01*
X159108117Y-114286705D01*
X159071041Y-114222486D01*
X159039702Y-114155281D01*
X159014341Y-114085600D01*
X158995148Y-114013974D01*
X158982272Y-113940947D01*
X158975809Y-113867076D01*
X158975809Y-113792924D01*
X158982272Y-113719053D01*
X158995148Y-113646026D01*
X159014341Y-113574400D01*
X159039702Y-113504719D01*
X159071041Y-113437514D01*
X159108117Y-113373295D01*
X159150650Y-113312553D01*
X159198314Y-113255748D01*
X159250748Y-113203314D01*
X159307553Y-113155650D01*
X159368295Y-113113117D01*
X159432514Y-113076041D01*
X159499719Y-113044702D01*
X159569400Y-113019341D01*
X159641026Y-113000148D01*
X159714053Y-112987272D01*
X159787924Y-112980809D01*
X159862076Y-112980809D01*
X159935947Y-112987272D01*
G37*
G36*
X162475947Y-112987272D02*
G01*
X162548974Y-113000148D01*
X162620600Y-113019341D01*
X162690281Y-113044702D01*
X162757486Y-113076041D01*
X162821705Y-113113117D01*
X162882447Y-113155650D01*
X162939252Y-113203314D01*
X162991686Y-113255748D01*
X163039350Y-113312553D01*
X163081883Y-113373295D01*
X163118959Y-113437514D01*
X163150298Y-113504719D01*
X163175659Y-113574400D01*
X163194852Y-113646026D01*
X163207728Y-113719053D01*
X163214191Y-113792924D01*
X163214191Y-113867076D01*
X163207728Y-113940947D01*
X163194852Y-114013974D01*
X163175659Y-114085600D01*
X163150298Y-114155281D01*
X163118959Y-114222486D01*
X163081883Y-114286705D01*
X163039350Y-114347447D01*
X162991686Y-114404252D01*
X162939252Y-114456686D01*
X162882447Y-114504350D01*
X162821705Y-114546883D01*
X162757486Y-114583959D01*
X162690281Y-114615298D01*
X162620600Y-114640659D01*
X162548974Y-114659852D01*
X162475947Y-114672728D01*
X162402076Y-114679191D01*
X162327924Y-114679191D01*
X162254053Y-114672728D01*
X162181026Y-114659852D01*
X162109400Y-114640659D01*
X162039719Y-114615298D01*
X161972514Y-114583959D01*
X161908295Y-114546883D01*
X161847553Y-114504350D01*
X161790748Y-114456686D01*
X161738314Y-114404252D01*
X161690650Y-114347447D01*
X161648117Y-114286705D01*
X161611041Y-114222486D01*
X161579702Y-114155281D01*
X161554341Y-114085600D01*
X161535148Y-114013974D01*
X161522272Y-113940947D01*
X161515809Y-113867076D01*
X161515809Y-113792924D01*
X161522272Y-113719053D01*
X161535148Y-113646026D01*
X161554341Y-113574400D01*
X161579702Y-113504719D01*
X161611041Y-113437514D01*
X161648117Y-113373295D01*
X161690650Y-113312553D01*
X161738314Y-113255748D01*
X161790748Y-113203314D01*
X161847553Y-113155650D01*
X161908295Y-113113117D01*
X161972514Y-113076041D01*
X162039719Y-113044702D01*
X162109400Y-113019341D01*
X162181026Y-113000148D01*
X162254053Y-112987272D01*
X162327924Y-112980809D01*
X162402076Y-112980809D01*
X162475947Y-112987272D01*
G37*
G36*
X165015947Y-112987272D02*
G01*
X165088974Y-113000148D01*
X165160600Y-113019341D01*
X165230281Y-113044702D01*
X165297486Y-113076041D01*
X165361705Y-113113117D01*
X165422447Y-113155650D01*
X165479252Y-113203314D01*
X165531686Y-113255748D01*
X165579350Y-113312553D01*
X165621883Y-113373295D01*
X165658959Y-113437514D01*
X165690298Y-113504719D01*
X165715659Y-113574400D01*
X165734852Y-113646026D01*
X165747728Y-113719053D01*
X165754191Y-113792924D01*
X165754191Y-113867076D01*
X165747728Y-113940947D01*
X165734852Y-114013974D01*
X165715659Y-114085600D01*
X165690298Y-114155281D01*
X165658959Y-114222486D01*
X165621883Y-114286705D01*
X165579350Y-114347447D01*
X165531686Y-114404252D01*
X165479252Y-114456686D01*
X165422447Y-114504350D01*
X165361705Y-114546883D01*
X165297486Y-114583959D01*
X165230281Y-114615298D01*
X165160600Y-114640659D01*
X165088974Y-114659852D01*
X165015947Y-114672728D01*
X164942076Y-114679191D01*
X164867924Y-114679191D01*
X164794053Y-114672728D01*
X164721026Y-114659852D01*
X164649400Y-114640659D01*
X164579719Y-114615298D01*
X164512514Y-114583959D01*
X164448295Y-114546883D01*
X164387553Y-114504350D01*
X164330748Y-114456686D01*
X164278314Y-114404252D01*
X164230650Y-114347447D01*
X164188117Y-114286705D01*
X164151041Y-114222486D01*
X164119702Y-114155281D01*
X164094341Y-114085600D01*
X164075148Y-114013974D01*
X164062272Y-113940947D01*
X164055809Y-113867076D01*
X164055809Y-113792924D01*
X164062272Y-113719053D01*
X164075148Y-113646026D01*
X164094341Y-113574400D01*
X164119702Y-113504719D01*
X164151041Y-113437514D01*
X164188117Y-113373295D01*
X164230650Y-113312553D01*
X164278314Y-113255748D01*
X164330748Y-113203314D01*
X164387553Y-113155650D01*
X164448295Y-113113117D01*
X164512514Y-113076041D01*
X164579719Y-113044702D01*
X164649400Y-113019341D01*
X164721026Y-113000148D01*
X164794053Y-112987272D01*
X164867924Y-112980809D01*
X164942076Y-112980809D01*
X165015947Y-112987272D01*
G37*
G36*
X167555947Y-112987272D02*
G01*
X167628974Y-113000148D01*
X167700600Y-113019341D01*
X167770281Y-113044702D01*
X167837486Y-113076041D01*
X167901705Y-113113117D01*
X167962447Y-113155650D01*
X168019252Y-113203314D01*
X168071686Y-113255748D01*
X168119350Y-113312553D01*
X168161883Y-113373295D01*
X168198959Y-113437514D01*
X168230298Y-113504719D01*
X168255659Y-113574400D01*
X168274852Y-113646026D01*
X168287728Y-113719053D01*
X168294191Y-113792924D01*
X168294191Y-113867076D01*
X168287728Y-113940947D01*
X168274852Y-114013974D01*
X168255659Y-114085600D01*
X168230298Y-114155281D01*
X168198959Y-114222486D01*
X168161883Y-114286705D01*
X168119350Y-114347447D01*
X168071686Y-114404252D01*
X168019252Y-114456686D01*
X167962447Y-114504350D01*
X167901705Y-114546883D01*
X167837486Y-114583959D01*
X167770281Y-114615298D01*
X167700600Y-114640659D01*
X167628974Y-114659852D01*
X167555947Y-114672728D01*
X167482076Y-114679191D01*
X167407924Y-114679191D01*
X167334053Y-114672728D01*
X167261026Y-114659852D01*
X167189400Y-114640659D01*
X167119719Y-114615298D01*
X167052514Y-114583959D01*
X166988295Y-114546883D01*
X166927553Y-114504350D01*
X166870748Y-114456686D01*
X166818314Y-114404252D01*
X166770650Y-114347447D01*
X166728117Y-114286705D01*
X166691041Y-114222486D01*
X166659702Y-114155281D01*
X166634341Y-114085600D01*
X166615148Y-114013974D01*
X166602272Y-113940947D01*
X166595809Y-113867076D01*
X166595809Y-113792924D01*
X166602272Y-113719053D01*
X166615148Y-113646026D01*
X166634341Y-113574400D01*
X166659702Y-113504719D01*
X166691041Y-113437514D01*
X166728117Y-113373295D01*
X166770650Y-113312553D01*
X166818314Y-113255748D01*
X166870748Y-113203314D01*
X166927553Y-113155650D01*
X166988295Y-113113117D01*
X167052514Y-113076041D01*
X167119719Y-113044702D01*
X167189400Y-113019341D01*
X167261026Y-113000148D01*
X167334053Y-112987272D01*
X167407924Y-112980809D01*
X167482076Y-112980809D01*
X167555947Y-112987272D01*
G37*
G36*
X170095947Y-112987272D02*
G01*
X170168974Y-113000148D01*
X170240600Y-113019341D01*
X170310281Y-113044702D01*
X170377486Y-113076041D01*
X170441705Y-113113117D01*
X170502447Y-113155650D01*
X170559252Y-113203314D01*
X170611686Y-113255748D01*
X170659350Y-113312553D01*
X170701883Y-113373295D01*
X170738959Y-113437514D01*
X170770298Y-113504719D01*
X170795659Y-113574400D01*
X170814852Y-113646026D01*
X170827728Y-113719053D01*
X170834191Y-113792924D01*
X170834191Y-113867076D01*
X170827728Y-113940947D01*
X170814852Y-114013974D01*
X170795659Y-114085600D01*
X170770298Y-114155281D01*
X170738959Y-114222486D01*
X170701883Y-114286705D01*
X170659350Y-114347447D01*
X170611686Y-114404252D01*
X170559252Y-114456686D01*
X170502447Y-114504350D01*
X170441705Y-114546883D01*
X170377486Y-114583959D01*
X170310281Y-114615298D01*
X170240600Y-114640659D01*
X170168974Y-114659852D01*
X170095947Y-114672728D01*
X170022076Y-114679191D01*
X169947924Y-114679191D01*
X169874053Y-114672728D01*
X169801026Y-114659852D01*
X169729400Y-114640659D01*
X169659719Y-114615298D01*
X169592514Y-114583959D01*
X169528295Y-114546883D01*
X169467553Y-114504350D01*
X169410748Y-114456686D01*
X169358314Y-114404252D01*
X169310650Y-114347447D01*
X169268117Y-114286705D01*
X169231041Y-114222486D01*
X169199702Y-114155281D01*
X169174341Y-114085600D01*
X169155148Y-114013974D01*
X169142272Y-113940947D01*
X169135809Y-113867076D01*
X169135809Y-113792924D01*
X169142272Y-113719053D01*
X169155148Y-113646026D01*
X169174341Y-113574400D01*
X169199702Y-113504719D01*
X169231041Y-113437514D01*
X169268117Y-113373295D01*
X169310650Y-113312553D01*
X169358314Y-113255748D01*
X169410748Y-113203314D01*
X169467553Y-113155650D01*
X169528295Y-113113117D01*
X169592514Y-113076041D01*
X169659719Y-113044702D01*
X169729400Y-113019341D01*
X169801026Y-113000148D01*
X169874053Y-112987272D01*
X169947924Y-112980809D01*
X170022076Y-112980809D01*
X170095947Y-112987272D01*
G37*
G36*
X172635947Y-112987272D02*
G01*
X172708974Y-113000148D01*
X172780600Y-113019341D01*
X172850281Y-113044702D01*
X172917486Y-113076041D01*
X172981705Y-113113117D01*
X173042447Y-113155650D01*
X173099252Y-113203314D01*
X173151686Y-113255748D01*
X173199350Y-113312553D01*
X173241883Y-113373295D01*
X173278959Y-113437514D01*
X173310298Y-113504719D01*
X173335659Y-113574400D01*
X173354852Y-113646026D01*
X173367728Y-113719053D01*
X173374191Y-113792924D01*
X173374191Y-113867076D01*
X173367728Y-113940947D01*
X173354852Y-114013974D01*
X173335659Y-114085600D01*
X173310298Y-114155281D01*
X173278959Y-114222486D01*
X173241883Y-114286705D01*
X173199350Y-114347447D01*
X173151686Y-114404252D01*
X173099252Y-114456686D01*
X173042447Y-114504350D01*
X172981705Y-114546883D01*
X172917486Y-114583959D01*
X172850281Y-114615298D01*
X172780600Y-114640659D01*
X172708974Y-114659852D01*
X172635947Y-114672728D01*
X172562076Y-114679191D01*
X172487924Y-114679191D01*
X172414053Y-114672728D01*
X172341026Y-114659852D01*
X172269400Y-114640659D01*
X172199719Y-114615298D01*
X172132514Y-114583959D01*
X172068295Y-114546883D01*
X172007553Y-114504350D01*
X171950748Y-114456686D01*
X171898314Y-114404252D01*
X171850650Y-114347447D01*
X171808117Y-114286705D01*
X171771041Y-114222486D01*
X171739702Y-114155281D01*
X171714341Y-114085600D01*
X171695148Y-114013974D01*
X171682272Y-113940947D01*
X171675809Y-113867076D01*
X171675809Y-113792924D01*
X171682272Y-113719053D01*
X171695148Y-113646026D01*
X171714341Y-113574400D01*
X171739702Y-113504719D01*
X171771041Y-113437514D01*
X171808117Y-113373295D01*
X171850650Y-113312553D01*
X171898314Y-113255748D01*
X171950748Y-113203314D01*
X172007553Y-113155650D01*
X172068295Y-113113117D01*
X172132514Y-113076041D01*
X172199719Y-113044702D01*
X172269400Y-113019341D01*
X172341026Y-113000148D01*
X172414053Y-112987272D01*
X172487924Y-112980809D01*
X172562076Y-112980809D01*
X172635947Y-112987272D01*
G37*
G36*
X125760947Y-110837272D02*
G01*
X125833974Y-110850148D01*
X125905600Y-110869341D01*
X125975281Y-110894702D01*
X126042486Y-110926041D01*
X126106705Y-110963117D01*
X126167447Y-111005650D01*
X126224252Y-111053314D01*
X126276686Y-111105748D01*
X126324350Y-111162553D01*
X126366883Y-111223295D01*
X126403959Y-111287514D01*
X126435298Y-111354719D01*
X126460659Y-111424400D01*
X126479852Y-111496026D01*
X126492728Y-111569053D01*
X126499191Y-111642924D01*
X126499191Y-111717076D01*
X126492728Y-111790947D01*
X126479852Y-111863974D01*
X126460659Y-111935600D01*
X126435298Y-112005281D01*
X126403959Y-112072486D01*
X126366883Y-112136705D01*
X126324350Y-112197447D01*
X126276686Y-112254252D01*
X126224252Y-112306686D01*
X126167447Y-112354350D01*
X126106705Y-112396883D01*
X126042486Y-112433959D01*
X125975281Y-112465298D01*
X125905600Y-112490659D01*
X125833974Y-112509852D01*
X125760947Y-112522728D01*
X125687076Y-112529191D01*
X125612924Y-112529191D01*
X125539053Y-112522728D01*
X125466026Y-112509852D01*
X125394400Y-112490659D01*
X125324719Y-112465298D01*
X125257514Y-112433959D01*
X125193295Y-112396883D01*
X125132553Y-112354350D01*
X125075748Y-112306686D01*
X125023314Y-112254252D01*
X124975650Y-112197447D01*
X124933117Y-112136705D01*
X124896041Y-112072486D01*
X124864702Y-112005281D01*
X124839341Y-111935600D01*
X124820148Y-111863974D01*
X124807272Y-111790947D01*
X124800809Y-111717076D01*
X124800809Y-111642924D01*
X124807272Y-111569053D01*
X124820148Y-111496026D01*
X124839341Y-111424400D01*
X124864702Y-111354719D01*
X124896041Y-111287514D01*
X124933117Y-111223295D01*
X124975650Y-111162553D01*
X125023314Y-111105748D01*
X125075748Y-111053314D01*
X125132553Y-111005650D01*
X125193295Y-110963117D01*
X125257514Y-110926041D01*
X125324719Y-110894702D01*
X125394400Y-110869341D01*
X125466026Y-110850148D01*
X125539053Y-110837272D01*
X125612924Y-110830809D01*
X125687076Y-110830809D01*
X125760947Y-110837272D01*
G37*
G36*
X128300947Y-110837272D02*
G01*
X128373974Y-110850148D01*
X128445600Y-110869341D01*
X128515281Y-110894702D01*
X128582486Y-110926041D01*
X128646705Y-110963117D01*
X128707447Y-111005650D01*
X128764252Y-111053314D01*
X128816686Y-111105748D01*
X128864350Y-111162553D01*
X128906883Y-111223295D01*
X128943959Y-111287514D01*
X128975298Y-111354719D01*
X129000659Y-111424400D01*
X129019852Y-111496026D01*
X129032728Y-111569053D01*
X129039191Y-111642924D01*
X129039191Y-111717076D01*
X129032728Y-111790947D01*
X129019852Y-111863974D01*
X129000659Y-111935600D01*
X128975298Y-112005281D01*
X128943959Y-112072486D01*
X128906883Y-112136705D01*
X128864350Y-112197447D01*
X128816686Y-112254252D01*
X128764252Y-112306686D01*
X128707447Y-112354350D01*
X128646705Y-112396883D01*
X128582486Y-112433959D01*
X128515281Y-112465298D01*
X128445600Y-112490659D01*
X128373974Y-112509852D01*
X128300947Y-112522728D01*
X128227076Y-112529191D01*
X128152924Y-112529191D01*
X128079053Y-112522728D01*
X128006026Y-112509852D01*
X127934400Y-112490659D01*
X127864719Y-112465298D01*
X127797514Y-112433959D01*
X127733295Y-112396883D01*
X127672553Y-112354350D01*
X127615748Y-112306686D01*
X127563314Y-112254252D01*
X127515650Y-112197447D01*
X127473117Y-112136705D01*
X127436041Y-112072486D01*
X127404702Y-112005281D01*
X127379341Y-111935600D01*
X127360148Y-111863974D01*
X127347272Y-111790947D01*
X127340809Y-111717076D01*
X127340809Y-111642924D01*
X127347272Y-111569053D01*
X127360148Y-111496026D01*
X127379341Y-111424400D01*
X127404702Y-111354719D01*
X127436041Y-111287514D01*
X127473117Y-111223295D01*
X127515650Y-111162553D01*
X127563314Y-111105748D01*
X127615748Y-111053314D01*
X127672553Y-111005650D01*
X127733295Y-110963117D01*
X127797514Y-110926041D01*
X127864719Y-110894702D01*
X127934400Y-110869341D01*
X128006026Y-110850148D01*
X128079053Y-110837272D01*
X128152924Y-110830809D01*
X128227076Y-110830809D01*
X128300947Y-110837272D01*
G37*
G36*
X134910947Y-110837272D02*
G01*
X134983974Y-110850148D01*
X135055600Y-110869341D01*
X135125281Y-110894702D01*
X135192486Y-110926041D01*
X135256705Y-110963117D01*
X135317447Y-111005650D01*
X135374252Y-111053314D01*
X135426686Y-111105748D01*
X135474350Y-111162553D01*
X135516883Y-111223295D01*
X135553959Y-111287514D01*
X135585298Y-111354719D01*
X135610659Y-111424400D01*
X135629852Y-111496026D01*
X135642728Y-111569053D01*
X135649191Y-111642924D01*
X135649191Y-111717076D01*
X135642728Y-111790947D01*
X135629852Y-111863974D01*
X135610659Y-111935600D01*
X135585298Y-112005281D01*
X135553959Y-112072486D01*
X135516883Y-112136705D01*
X135474350Y-112197447D01*
X135426686Y-112254252D01*
X135374252Y-112306686D01*
X135317447Y-112354350D01*
X135256705Y-112396883D01*
X135192486Y-112433959D01*
X135125281Y-112465298D01*
X135055600Y-112490659D01*
X134983974Y-112509852D01*
X134910947Y-112522728D01*
X134837076Y-112529191D01*
X134762924Y-112529191D01*
X134689053Y-112522728D01*
X134616026Y-112509852D01*
X134544400Y-112490659D01*
X134474719Y-112465298D01*
X134407514Y-112433959D01*
X134343295Y-112396883D01*
X134282553Y-112354350D01*
X134225748Y-112306686D01*
X134173314Y-112254252D01*
X134125650Y-112197447D01*
X134083117Y-112136705D01*
X134046041Y-112072486D01*
X134014702Y-112005281D01*
X133989341Y-111935600D01*
X133970148Y-111863974D01*
X133957272Y-111790947D01*
X133950809Y-111717076D01*
X133950809Y-111642924D01*
X133957272Y-111569053D01*
X133970148Y-111496026D01*
X133989341Y-111424400D01*
X134014702Y-111354719D01*
X134046041Y-111287514D01*
X134083117Y-111223295D01*
X134125650Y-111162553D01*
X134173314Y-111105748D01*
X134225748Y-111053314D01*
X134282553Y-111005650D01*
X134343295Y-110963117D01*
X134407514Y-110926041D01*
X134474719Y-110894702D01*
X134544400Y-110869341D01*
X134616026Y-110850148D01*
X134689053Y-110837272D01*
X134762924Y-110830809D01*
X134837076Y-110830809D01*
X134910947Y-110837272D01*
G37*
G36*
X126500000Y-109990000D02*
G01*
X124800000Y-109990000D01*
X124800000Y-108290000D01*
X126500000Y-108290000D01*
X126500000Y-109990000D01*
G37*
G36*
X135650000Y-109990000D02*
G01*
X133950000Y-109990000D01*
X133950000Y-108290000D01*
X135650000Y-108290000D01*
X135650000Y-109990000D01*
G37*
G36*
X128300947Y-108297272D02*
G01*
X128373974Y-108310148D01*
X128445600Y-108329341D01*
X128515281Y-108354702D01*
X128582486Y-108386041D01*
X128646705Y-108423117D01*
X128707447Y-108465650D01*
X128764252Y-108513314D01*
X128816686Y-108565748D01*
X128864350Y-108622553D01*
X128906883Y-108683295D01*
X128943959Y-108747514D01*
X128975298Y-108814719D01*
X129000659Y-108884400D01*
X129019852Y-108956026D01*
X129032728Y-109029053D01*
X129039191Y-109102924D01*
X129039191Y-109177076D01*
X129032728Y-109250947D01*
X129019852Y-109323974D01*
X129000659Y-109395600D01*
X128975298Y-109465281D01*
X128943959Y-109532486D01*
X128906883Y-109596705D01*
X128864350Y-109657447D01*
X128816686Y-109714252D01*
X128764252Y-109766686D01*
X128707447Y-109814350D01*
X128646705Y-109856883D01*
X128582486Y-109893959D01*
X128515281Y-109925298D01*
X128445600Y-109950659D01*
X128373974Y-109969852D01*
X128300947Y-109982728D01*
X128227076Y-109989191D01*
X128152924Y-109989191D01*
X128079053Y-109982728D01*
X128006026Y-109969852D01*
X127934400Y-109950659D01*
X127864719Y-109925298D01*
X127797514Y-109893959D01*
X127733295Y-109856883D01*
X127672553Y-109814350D01*
X127615748Y-109766686D01*
X127563314Y-109714252D01*
X127515650Y-109657447D01*
X127473117Y-109596705D01*
X127436041Y-109532486D01*
X127404702Y-109465281D01*
X127379341Y-109395600D01*
X127360148Y-109323974D01*
X127347272Y-109250947D01*
X127340809Y-109177076D01*
X127340809Y-109102924D01*
X127347272Y-109029053D01*
X127360148Y-108956026D01*
X127379341Y-108884400D01*
X127404702Y-108814719D01*
X127436041Y-108747514D01*
X127473117Y-108683295D01*
X127515650Y-108622553D01*
X127563314Y-108565748D01*
X127615748Y-108513314D01*
X127672553Y-108465650D01*
X127733295Y-108423117D01*
X127797514Y-108386041D01*
X127864719Y-108354702D01*
X127934400Y-108329341D01*
X128006026Y-108310148D01*
X128079053Y-108297272D01*
X128152924Y-108290809D01*
X128227076Y-108290809D01*
X128300947Y-108297272D01*
G37*
G36*
X126500000Y-103390000D02*
G01*
X124800000Y-103390000D01*
X124800000Y-101690000D01*
X126500000Y-101690000D01*
X126500000Y-103390000D01*
G37*
G36*
X128300947Y-101697272D02*
G01*
X128373974Y-101710148D01*
X128445600Y-101729341D01*
X128515281Y-101754702D01*
X128582486Y-101786041D01*
X128646705Y-101823117D01*
X128707447Y-101865650D01*
X128764252Y-101913314D01*
X128816686Y-101965748D01*
X128864350Y-102022553D01*
X128906883Y-102083295D01*
X128943959Y-102147514D01*
X128975298Y-102214719D01*
X129000659Y-102284400D01*
X129019852Y-102356026D01*
X129032728Y-102429053D01*
X129039191Y-102502924D01*
X129039191Y-102577076D01*
X129032728Y-102650947D01*
X129019852Y-102723974D01*
X129000659Y-102795600D01*
X128975298Y-102865281D01*
X128943959Y-102932486D01*
X128906883Y-102996705D01*
X128864350Y-103057447D01*
X128816686Y-103114252D01*
X128764252Y-103166686D01*
X128707447Y-103214350D01*
X128646705Y-103256883D01*
X128582486Y-103293959D01*
X128515281Y-103325298D01*
X128445600Y-103350659D01*
X128373974Y-103369852D01*
X128300947Y-103382728D01*
X128227076Y-103389191D01*
X128152924Y-103389191D01*
X128079053Y-103382728D01*
X128006026Y-103369852D01*
X127934400Y-103350659D01*
X127864719Y-103325298D01*
X127797514Y-103293959D01*
X127733295Y-103256883D01*
X127672553Y-103214350D01*
X127615748Y-103166686D01*
X127563314Y-103114252D01*
X127515650Y-103057447D01*
X127473117Y-102996705D01*
X127436041Y-102932486D01*
X127404702Y-102865281D01*
X127379341Y-102795600D01*
X127360148Y-102723974D01*
X127347272Y-102650947D01*
X127340809Y-102577076D01*
X127340809Y-102502924D01*
X127347272Y-102429053D01*
X127360148Y-102356026D01*
X127379341Y-102284400D01*
X127404702Y-102214719D01*
X127436041Y-102147514D01*
X127473117Y-102083295D01*
X127515650Y-102022553D01*
X127563314Y-101965748D01*
X127615748Y-101913314D01*
X127672553Y-101865650D01*
X127733295Y-101823117D01*
X127797514Y-101786041D01*
X127864719Y-101754702D01*
X127934400Y-101729341D01*
X128006026Y-101710148D01*
X128079053Y-101697272D01*
X128152924Y-101690809D01*
X128227076Y-101690809D01*
X128300947Y-101697272D01*
G37*
G36*
X185178035Y-97750787D02*
G01*
X185233753Y-97757064D01*
X185288418Y-97769541D01*
X185341342Y-97788060D01*
X185391859Y-97812388D01*
X185439336Y-97842220D01*
X185483173Y-97877179D01*
X185522821Y-97916827D01*
X185557780Y-97960664D01*
X185587612Y-98008141D01*
X185611940Y-98058658D01*
X185630459Y-98111582D01*
X185642936Y-98166247D01*
X185649213Y-98221965D01*
X185649213Y-98278035D01*
X185642936Y-98333753D01*
X185630459Y-98388418D01*
X185611940Y-98441342D01*
X185587612Y-98491859D01*
X185557780Y-98539336D01*
X185522821Y-98583173D01*
X185483173Y-98622821D01*
X185439336Y-98657780D01*
X185391859Y-98687612D01*
X185341342Y-98711940D01*
X185288418Y-98730459D01*
X185233753Y-98742936D01*
X185178035Y-98749213D01*
X185150000Y-98750000D01*
X185149311Y-98750000D01*
X184350689Y-98750000D01*
X184350000Y-98750000D01*
X184321965Y-98749213D01*
X184266247Y-98742936D01*
X184211582Y-98730459D01*
X184158658Y-98711940D01*
X184108141Y-98687612D01*
X184060664Y-98657780D01*
X184016827Y-98622821D01*
X183977179Y-98583173D01*
X183942220Y-98539336D01*
X183912388Y-98491859D01*
X183888060Y-98441342D01*
X183869541Y-98388418D01*
X183857064Y-98333753D01*
X183850787Y-98278035D01*
X183850787Y-98221965D01*
X183857064Y-98166247D01*
X183869541Y-98111582D01*
X183888060Y-98058658D01*
X183912388Y-98008141D01*
X183942220Y-97960664D01*
X183977179Y-97916827D01*
X184016827Y-97877179D01*
X184060664Y-97842220D01*
X184108141Y-97812388D01*
X184158658Y-97788060D01*
X184211582Y-97769541D01*
X184266247Y-97757064D01*
X184321965Y-97750787D01*
X184350000Y-97750000D01*
X185150000Y-97750000D01*
X185178035Y-97750787D01*
G37*
G36*
X189378035Y-97750787D02*
G01*
X189433753Y-97757064D01*
X189488418Y-97769541D01*
X189541342Y-97788060D01*
X189591859Y-97812388D01*
X189639336Y-97842220D01*
X189683173Y-97877179D01*
X189722821Y-97916827D01*
X189757780Y-97960664D01*
X189787612Y-98008141D01*
X189811940Y-98058658D01*
X189830459Y-98111582D01*
X189842936Y-98166247D01*
X189849213Y-98221965D01*
X189849213Y-98278035D01*
X189842936Y-98333753D01*
X189830459Y-98388418D01*
X189811940Y-98441342D01*
X189787612Y-98491859D01*
X189757780Y-98539336D01*
X189722821Y-98583173D01*
X189683173Y-98622821D01*
X189639336Y-98657780D01*
X189591859Y-98687612D01*
X189541342Y-98711940D01*
X189488418Y-98730459D01*
X189433753Y-98742936D01*
X189378035Y-98749213D01*
X189350000Y-98750000D01*
X189349311Y-98750000D01*
X188150689Y-98750000D01*
X188150000Y-98750000D01*
X188121965Y-98749213D01*
X188066247Y-98742936D01*
X188011582Y-98730459D01*
X187958658Y-98711940D01*
X187908141Y-98687612D01*
X187860664Y-98657780D01*
X187816827Y-98622821D01*
X187777179Y-98583173D01*
X187742220Y-98539336D01*
X187712388Y-98491859D01*
X187688060Y-98441342D01*
X187669541Y-98388418D01*
X187657064Y-98333753D01*
X187650787Y-98278035D01*
X187650787Y-98221965D01*
X187657064Y-98166247D01*
X187669541Y-98111582D01*
X187688060Y-98058658D01*
X187712388Y-98008141D01*
X187742220Y-97960664D01*
X187777179Y-97916827D01*
X187816827Y-97877179D01*
X187860664Y-97842220D01*
X187908141Y-97812388D01*
X187958658Y-97788060D01*
X188011582Y-97769541D01*
X188066247Y-97757064D01*
X188121965Y-97750787D01*
X188150000Y-97750000D01*
X189350000Y-97750000D01*
X189378035Y-97750787D01*
G37*
G36*
X185178035Y-89110787D02*
G01*
X185233753Y-89117064D01*
X185288418Y-89129541D01*
X185341342Y-89148060D01*
X185391859Y-89172388D01*
X185439336Y-89202220D01*
X185483173Y-89237179D01*
X185522821Y-89276827D01*
X185557780Y-89320664D01*
X185587612Y-89368141D01*
X185611940Y-89418658D01*
X185630459Y-89471582D01*
X185642936Y-89526247D01*
X185649213Y-89581965D01*
X185649213Y-89638035D01*
X185642936Y-89693753D01*
X185630459Y-89748418D01*
X185611940Y-89801342D01*
X185587612Y-89851859D01*
X185557780Y-89899336D01*
X185522821Y-89943173D01*
X185483173Y-89982821D01*
X185439336Y-90017780D01*
X185391859Y-90047612D01*
X185341342Y-90071940D01*
X185288418Y-90090459D01*
X185233753Y-90102936D01*
X185178035Y-90109213D01*
X185150000Y-90110000D01*
X185149311Y-90110000D01*
X184350689Y-90110000D01*
X184350000Y-90110000D01*
X184321965Y-90109213D01*
X184266247Y-90102936D01*
X184211582Y-90090459D01*
X184158658Y-90071940D01*
X184108141Y-90047612D01*
X184060664Y-90017780D01*
X184016827Y-89982821D01*
X183977179Y-89943173D01*
X183942220Y-89899336D01*
X183912388Y-89851859D01*
X183888060Y-89801342D01*
X183869541Y-89748418D01*
X183857064Y-89693753D01*
X183850787Y-89638035D01*
X183850787Y-89581965D01*
X183857064Y-89526247D01*
X183869541Y-89471582D01*
X183888060Y-89418658D01*
X183912388Y-89368141D01*
X183942220Y-89320664D01*
X183977179Y-89276827D01*
X184016827Y-89237179D01*
X184060664Y-89202220D01*
X184108141Y-89172388D01*
X184158658Y-89148060D01*
X184211582Y-89129541D01*
X184266247Y-89117064D01*
X184321965Y-89110787D01*
X184350000Y-89110000D01*
X185150000Y-89110000D01*
X185178035Y-89110787D01*
G37*
G36*
X189378035Y-89110787D02*
G01*
X189433753Y-89117064D01*
X189488418Y-89129541D01*
X189541342Y-89148060D01*
X189591859Y-89172388D01*
X189639336Y-89202220D01*
X189683173Y-89237179D01*
X189722821Y-89276827D01*
X189757780Y-89320664D01*
X189787612Y-89368141D01*
X189811940Y-89418658D01*
X189830459Y-89471582D01*
X189842936Y-89526247D01*
X189849213Y-89581965D01*
X189849213Y-89638035D01*
X189842936Y-89693753D01*
X189830459Y-89748418D01*
X189811940Y-89801342D01*
X189787612Y-89851859D01*
X189757780Y-89899336D01*
X189722821Y-89943173D01*
X189683173Y-89982821D01*
X189639336Y-90017780D01*
X189591859Y-90047612D01*
X189541342Y-90071940D01*
X189488418Y-90090459D01*
X189433753Y-90102936D01*
X189378035Y-90109213D01*
X189350000Y-90110000D01*
X189349311Y-90110000D01*
X188150689Y-90110000D01*
X188150000Y-90110000D01*
X188121965Y-90109213D01*
X188066247Y-90102936D01*
X188011582Y-90090459D01*
X187958658Y-90071940D01*
X187908141Y-90047612D01*
X187860664Y-90017780D01*
X187816827Y-89982821D01*
X187777179Y-89943173D01*
X187742220Y-89899336D01*
X187712388Y-89851859D01*
X187688060Y-89801342D01*
X187669541Y-89748418D01*
X187657064Y-89693753D01*
X187650787Y-89638035D01*
X187650787Y-89581965D01*
X187657064Y-89526247D01*
X187669541Y-89471582D01*
X187688060Y-89418658D01*
X187712388Y-89368141D01*
X187742220Y-89320664D01*
X187777179Y-89276827D01*
X187816827Y-89237179D01*
X187860664Y-89202220D01*
X187908141Y-89172388D01*
X187958658Y-89148060D01*
X188011582Y-89129541D01*
X188066247Y-89117064D01*
X188121965Y-89110787D01*
X188150000Y-89110000D01*
X189350000Y-89110000D01*
X189378035Y-89110787D01*
G37*
G36*
X123578036Y-89105787D02*
G01*
X123633754Y-89112064D01*
X123688419Y-89124541D01*
X123741343Y-89143060D01*
X123791860Y-89167388D01*
X123839337Y-89197220D01*
X123883174Y-89232179D01*
X123922822Y-89271827D01*
X123957781Y-89315664D01*
X123987613Y-89363141D01*
X124011941Y-89413658D01*
X124030460Y-89466582D01*
X124042937Y-89521247D01*
X124049214Y-89576965D01*
X124049214Y-89633035D01*
X124042937Y-89688753D01*
X124030460Y-89743418D01*
X124011941Y-89796342D01*
X123987613Y-89846859D01*
X123957781Y-89894336D01*
X123922822Y-89938173D01*
X123883174Y-89977821D01*
X123839337Y-90012780D01*
X123791860Y-90042612D01*
X123741343Y-90066940D01*
X123688419Y-90085459D01*
X123633754Y-90097936D01*
X123578036Y-90104213D01*
X123550001Y-90105000D01*
X123549312Y-90105000D01*
X122350690Y-90105000D01*
X122350001Y-90105000D01*
X122321966Y-90104213D01*
X122266248Y-90097936D01*
X122211583Y-90085459D01*
X122158659Y-90066940D01*
X122108142Y-90042612D01*
X122060665Y-90012780D01*
X122016828Y-89977821D01*
X121977180Y-89938173D01*
X121942221Y-89894336D01*
X121912389Y-89846859D01*
X121888061Y-89796342D01*
X121869542Y-89743418D01*
X121857065Y-89688753D01*
X121850788Y-89633035D01*
X121850788Y-89576965D01*
X121857065Y-89521247D01*
X121869542Y-89466582D01*
X121888061Y-89413658D01*
X121912389Y-89363141D01*
X121942221Y-89315664D01*
X121977180Y-89271827D01*
X122016828Y-89232179D01*
X122060665Y-89197220D01*
X122108142Y-89167388D01*
X122158659Y-89143060D01*
X122211583Y-89124541D01*
X122266248Y-89112064D01*
X122321966Y-89105787D01*
X122350001Y-89105000D01*
X123550001Y-89105000D01*
X123578036Y-89105787D01*
G37*
G36*
X127378036Y-89105787D02*
G01*
X127433754Y-89112064D01*
X127488419Y-89124541D01*
X127541343Y-89143060D01*
X127591860Y-89167388D01*
X127639337Y-89197220D01*
X127683174Y-89232179D01*
X127722822Y-89271827D01*
X127757781Y-89315664D01*
X127787613Y-89363141D01*
X127811941Y-89413658D01*
X127830460Y-89466582D01*
X127842937Y-89521247D01*
X127849214Y-89576965D01*
X127849214Y-89633035D01*
X127842937Y-89688753D01*
X127830460Y-89743418D01*
X127811941Y-89796342D01*
X127787613Y-89846859D01*
X127757781Y-89894336D01*
X127722822Y-89938173D01*
X127683174Y-89977821D01*
X127639337Y-90012780D01*
X127591860Y-90042612D01*
X127541343Y-90066940D01*
X127488419Y-90085459D01*
X127433754Y-90097936D01*
X127378036Y-90104213D01*
X127350001Y-90105000D01*
X127349312Y-90105000D01*
X126550690Y-90105000D01*
X126550001Y-90105000D01*
X126521966Y-90104213D01*
X126466248Y-90097936D01*
X126411583Y-90085459D01*
X126358659Y-90066940D01*
X126308142Y-90042612D01*
X126260665Y-90012780D01*
X126216828Y-89977821D01*
X126177180Y-89938173D01*
X126142221Y-89894336D01*
X126112389Y-89846859D01*
X126088061Y-89796342D01*
X126069542Y-89743418D01*
X126057065Y-89688753D01*
X126050788Y-89633035D01*
X126050788Y-89576965D01*
X126057065Y-89521247D01*
X126069542Y-89466582D01*
X126088061Y-89413658D01*
X126112389Y-89363141D01*
X126142221Y-89315664D01*
X126177180Y-89271827D01*
X126216828Y-89232179D01*
X126260665Y-89197220D01*
X126308142Y-89167388D01*
X126358659Y-89143060D01*
X126411583Y-89124541D01*
X126466248Y-89112064D01*
X126521966Y-89105787D01*
X126550001Y-89105000D01*
X127350001Y-89105000D01*
X127378036Y-89105787D01*
G37*
G36*
X147433772Y-79740211D02*
G01*
X147460717Y-79741388D01*
X147464017Y-79741910D01*
X147470307Y-79742264D01*
X147491150Y-79746207D01*
X147510954Y-79749344D01*
X147516194Y-79750946D01*
X147523175Y-79752267D01*
X147541590Y-79758710D01*
X147558968Y-79764024D01*
X147565563Y-79767099D01*
X147573961Y-79770038D01*
X147589678Y-79778344D01*
X147604470Y-79785242D01*
X147612077Y-79790182D01*
X147621532Y-79795179D01*
X147634426Y-79804696D01*
X147646581Y-79812589D01*
X147654791Y-79819726D01*
X147664823Y-79827130D01*
X147674894Y-79837201D01*
X147684472Y-79845527D01*
X147692797Y-79855104D01*
X147702870Y-79865177D01*
X147710274Y-79875209D01*
X147717410Y-79883418D01*
X147725301Y-79895569D01*
X147734821Y-79908468D01*
X147739819Y-79917925D01*
X147744757Y-79925529D01*
X147751651Y-79940313D01*
X147759962Y-79956039D01*
X147762902Y-79964440D01*
X147765975Y-79971031D01*
X147771283Y-79988393D01*
X147777733Y-80006825D01*
X147779054Y-80013811D01*
X147780655Y-80019045D01*
X147783787Y-80038822D01*
X147787736Y-80059693D01*
X147788089Y-80065990D01*
X147788611Y-80069282D01*
X147789784Y-80096157D01*
X147790000Y-80100000D01*
X147790000Y-81580000D01*
X147789783Y-81583852D01*
X147788611Y-81610717D01*
X147788089Y-81614007D01*
X147787736Y-81620307D01*
X147783786Y-81641182D01*
X147780655Y-81660954D01*
X147779055Y-81666185D01*
X147777733Y-81673175D01*
X147771281Y-81691612D01*
X147765975Y-81708968D01*
X147762903Y-81715555D01*
X147759962Y-81723961D01*
X147751647Y-81739694D01*
X147744757Y-81754470D01*
X147739821Y-81762069D01*
X147734821Y-81771532D01*
X147725295Y-81784438D01*
X147717410Y-81796581D01*
X147710279Y-81804783D01*
X147702870Y-81814823D01*
X147692791Y-81824901D01*
X147684472Y-81834472D01*
X147674901Y-81842791D01*
X147664823Y-81852870D01*
X147654783Y-81860279D01*
X147646581Y-81867410D01*
X147634438Y-81875295D01*
X147621532Y-81884821D01*
X147612069Y-81889821D01*
X147604470Y-81894757D01*
X147589694Y-81901647D01*
X147573961Y-81909962D01*
X147565555Y-81912903D01*
X147558968Y-81915975D01*
X147541612Y-81921281D01*
X147523175Y-81927733D01*
X147516185Y-81929055D01*
X147510954Y-81930655D01*
X147491182Y-81933786D01*
X147470307Y-81937736D01*
X147464007Y-81938089D01*
X147460717Y-81938611D01*
X147433846Y-81939783D01*
X147430000Y-81940000D01*
X146950000Y-81940000D01*
X146946151Y-81939783D01*
X146919282Y-81938611D01*
X146915990Y-81938089D01*
X146909693Y-81937736D01*
X146888822Y-81933787D01*
X146869045Y-81930655D01*
X146863811Y-81929054D01*
X146856825Y-81927733D01*
X146838393Y-81921283D01*
X146821031Y-81915975D01*
X146814440Y-81912902D01*
X146806039Y-81909962D01*
X146790313Y-81901651D01*
X146775529Y-81894757D01*
X146767925Y-81889819D01*
X146758468Y-81884821D01*
X146745569Y-81875301D01*
X146733418Y-81867410D01*
X146725209Y-81860274D01*
X146715177Y-81852870D01*
X146705104Y-81842797D01*
X146695527Y-81834472D01*
X146687201Y-81824894D01*
X146677130Y-81814823D01*
X146669726Y-81804791D01*
X146662589Y-81796581D01*
X146654696Y-81784426D01*
X146645179Y-81771532D01*
X146640182Y-81762077D01*
X146635242Y-81754470D01*
X146628344Y-81739678D01*
X146620038Y-81723961D01*
X146617099Y-81715563D01*
X146614024Y-81708968D01*
X146608710Y-81691590D01*
X146602267Y-81673175D01*
X146600946Y-81666194D01*
X146599344Y-81660954D01*
X146596207Y-81641150D01*
X146592264Y-81620307D01*
X146591910Y-81614017D01*
X146591388Y-81610717D01*
X146590211Y-81583766D01*
X146590000Y-81580000D01*
X146590000Y-80100000D01*
X146590211Y-80096231D01*
X146591388Y-80069282D01*
X146591910Y-80065980D01*
X146592264Y-80059693D01*
X146596206Y-80038854D01*
X146599344Y-80019045D01*
X146600946Y-80013802D01*
X146602267Y-80006825D01*
X146608708Y-79988416D01*
X146614024Y-79971031D01*
X146617100Y-79964432D01*
X146620038Y-79956039D01*
X146628340Y-79940329D01*
X146635242Y-79925529D01*
X146640185Y-79917916D01*
X146645179Y-79908468D01*
X146654690Y-79895580D01*
X146662589Y-79883418D01*
X146669731Y-79875201D01*
X146677130Y-79865177D01*
X146687194Y-79855112D01*
X146695527Y-79845527D01*
X146705112Y-79837194D01*
X146715177Y-79827130D01*
X146725201Y-79819731D01*
X146733418Y-79812589D01*
X146745580Y-79804690D01*
X146758468Y-79795179D01*
X146767916Y-79790185D01*
X146775529Y-79785242D01*
X146790329Y-79778340D01*
X146806039Y-79770038D01*
X146814432Y-79767100D01*
X146821031Y-79764024D01*
X146838416Y-79758708D01*
X146856825Y-79752267D01*
X146863802Y-79750946D01*
X146869045Y-79749344D01*
X146888854Y-79746206D01*
X146909693Y-79742264D01*
X146915980Y-79741910D01*
X146919282Y-79741388D01*
X146946237Y-79740211D01*
X146950000Y-79740000D01*
X147430000Y-79740000D01*
X147433772Y-79740211D01*
G37*
G36*
X123578036Y-80465787D02*
G01*
X123633754Y-80472064D01*
X123688419Y-80484541D01*
X123741343Y-80503060D01*
X123791860Y-80527388D01*
X123839337Y-80557220D01*
X123883174Y-80592179D01*
X123922822Y-80631827D01*
X123957781Y-80675664D01*
X123987613Y-80723141D01*
X124011941Y-80773658D01*
X124030460Y-80826582D01*
X124042937Y-80881247D01*
X124049214Y-80936965D01*
X124049214Y-80993035D01*
X124042937Y-81048753D01*
X124030460Y-81103418D01*
X124011941Y-81156342D01*
X123987613Y-81206859D01*
X123957781Y-81254336D01*
X123922822Y-81298173D01*
X123883174Y-81337821D01*
X123839337Y-81372780D01*
X123791860Y-81402612D01*
X123741343Y-81426940D01*
X123688419Y-81445459D01*
X123633754Y-81457936D01*
X123578036Y-81464213D01*
X123550001Y-81465000D01*
X123549312Y-81465000D01*
X122350690Y-81465000D01*
X122350001Y-81465000D01*
X122321966Y-81464213D01*
X122266248Y-81457936D01*
X122211583Y-81445459D01*
X122158659Y-81426940D01*
X122108142Y-81402612D01*
X122060665Y-81372780D01*
X122016828Y-81337821D01*
X121977180Y-81298173D01*
X121942221Y-81254336D01*
X121912389Y-81206859D01*
X121888061Y-81156342D01*
X121869542Y-81103418D01*
X121857065Y-81048753D01*
X121850788Y-80993035D01*
X121850788Y-80936965D01*
X121857065Y-80881247D01*
X121869542Y-80826582D01*
X121888061Y-80773658D01*
X121912389Y-80723141D01*
X121942221Y-80675664D01*
X121977180Y-80631827D01*
X122016828Y-80592179D01*
X122060665Y-80557220D01*
X122108142Y-80527388D01*
X122158659Y-80503060D01*
X122211583Y-80484541D01*
X122266248Y-80472064D01*
X122321966Y-80465787D01*
X122350001Y-80465000D01*
X123550001Y-80465000D01*
X123578036Y-80465787D01*
G37*
G36*
X127378036Y-80465787D02*
G01*
X127433754Y-80472064D01*
X127488419Y-80484541D01*
X127541343Y-80503060D01*
X127591860Y-80527388D01*
X127639337Y-80557220D01*
X127683174Y-80592179D01*
X127722822Y-80631827D01*
X127757781Y-80675664D01*
X127787613Y-80723141D01*
X127811941Y-80773658D01*
X127830460Y-80826582D01*
X127842937Y-80881247D01*
X127849214Y-80936965D01*
X127849214Y-80993035D01*
X127842937Y-81048753D01*
X127830460Y-81103418D01*
X127811941Y-81156342D01*
X127787613Y-81206859D01*
X127757781Y-81254336D01*
X127722822Y-81298173D01*
X127683174Y-81337821D01*
X127639337Y-81372780D01*
X127591860Y-81402612D01*
X127541343Y-81426940D01*
X127488419Y-81445459D01*
X127433754Y-81457936D01*
X127378036Y-81464213D01*
X127350001Y-81465000D01*
X127349312Y-81465000D01*
X126550690Y-81465000D01*
X126550001Y-81465000D01*
X126521966Y-81464213D01*
X126466248Y-81457936D01*
X126411583Y-81445459D01*
X126358659Y-81426940D01*
X126308142Y-81402612D01*
X126260665Y-81372780D01*
X126216828Y-81337821D01*
X126177180Y-81298173D01*
X126142221Y-81254336D01*
X126112389Y-81206859D01*
X126088061Y-81156342D01*
X126069542Y-81103418D01*
X126057065Y-81048753D01*
X126050788Y-80993035D01*
X126050788Y-80936965D01*
X126057065Y-80881247D01*
X126069542Y-80826582D01*
X126088061Y-80773658D01*
X126112389Y-80723141D01*
X126142221Y-80675664D01*
X126177180Y-80631827D01*
X126216828Y-80592179D01*
X126260665Y-80557220D01*
X126308142Y-80527388D01*
X126358659Y-80503060D01*
X126411583Y-80484541D01*
X126466248Y-80472064D01*
X126521966Y-80465787D01*
X126550001Y-80465000D01*
X127350001Y-80465000D01*
X127378036Y-80465787D01*
G37*
G36*
X129808753Y-77297064D02*
G01*
X129863418Y-77309541D01*
X129916342Y-77328060D01*
X129966859Y-77352388D01*
X130014336Y-77382220D01*
X130058173Y-77417179D01*
X130097821Y-77456827D01*
X130132780Y-77500664D01*
X130162612Y-77548141D01*
X130186940Y-77598658D01*
X130205459Y-77651582D01*
X130217936Y-77706247D01*
X130224213Y-77761965D01*
X130225000Y-77790000D01*
X130225000Y-78590000D01*
X130224213Y-78618035D01*
X130217936Y-78673753D01*
X130205459Y-78728418D01*
X130186940Y-78781342D01*
X130162612Y-78831859D01*
X130132780Y-78879336D01*
X130097821Y-78923173D01*
X130058173Y-78962821D01*
X130014336Y-78997780D01*
X129966859Y-79027612D01*
X129916342Y-79051940D01*
X129863418Y-79070459D01*
X129808753Y-79082936D01*
X129753035Y-79089213D01*
X129696965Y-79089213D01*
X129641247Y-79082936D01*
X129586582Y-79070459D01*
X129533658Y-79051940D01*
X129483141Y-79027612D01*
X129435664Y-78997780D01*
X129391827Y-78962821D01*
X129352179Y-78923173D01*
X129317220Y-78879336D01*
X129287388Y-78831859D01*
X129263060Y-78781342D01*
X129244541Y-78728418D01*
X129232064Y-78673753D01*
X129225787Y-78618035D01*
X129225000Y-78590000D01*
X129225000Y-77790000D01*
X129225787Y-77761965D01*
X129232064Y-77706247D01*
X129244541Y-77651582D01*
X129263060Y-77598658D01*
X129287388Y-77548141D01*
X129317220Y-77500664D01*
X129352179Y-77456827D01*
X129391827Y-77417179D01*
X129435664Y-77382220D01*
X129483141Y-77352388D01*
X129533658Y-77328060D01*
X129586582Y-77309541D01*
X129641247Y-77297064D01*
X129696965Y-77290787D01*
X129753035Y-77290787D01*
X129808753Y-77297064D01*
G37*
G36*
X138448753Y-77297064D02*
G01*
X138503418Y-77309541D01*
X138556342Y-77328060D01*
X138606859Y-77352388D01*
X138654336Y-77382220D01*
X138698173Y-77417179D01*
X138737821Y-77456827D01*
X138772780Y-77500664D01*
X138802612Y-77548141D01*
X138826940Y-77598658D01*
X138845459Y-77651582D01*
X138857936Y-77706247D01*
X138864213Y-77761965D01*
X138865000Y-77790000D01*
X138865000Y-78590000D01*
X138864213Y-78618035D01*
X138857936Y-78673753D01*
X138845459Y-78728418D01*
X138826940Y-78781342D01*
X138802612Y-78831859D01*
X138772780Y-78879336D01*
X138737821Y-78923173D01*
X138698173Y-78962821D01*
X138654336Y-78997780D01*
X138606859Y-79027612D01*
X138556342Y-79051940D01*
X138503418Y-79070459D01*
X138448753Y-79082936D01*
X138393035Y-79089213D01*
X138336965Y-79089213D01*
X138281247Y-79082936D01*
X138226582Y-79070459D01*
X138173658Y-79051940D01*
X138123141Y-79027612D01*
X138075664Y-78997780D01*
X138031827Y-78962821D01*
X137992179Y-78923173D01*
X137957220Y-78879336D01*
X137927388Y-78831859D01*
X137903060Y-78781342D01*
X137884541Y-78728418D01*
X137872064Y-78673753D01*
X137865787Y-78618035D01*
X137865000Y-78590000D01*
X137865000Y-77790000D01*
X137865787Y-77761965D01*
X137872064Y-77706247D01*
X137884541Y-77651582D01*
X137903060Y-77598658D01*
X137927388Y-77548141D01*
X137957220Y-77500664D01*
X137992179Y-77456827D01*
X138031827Y-77417179D01*
X138075664Y-77382220D01*
X138123141Y-77352388D01*
X138173658Y-77328060D01*
X138226582Y-77309541D01*
X138281247Y-77297064D01*
X138336965Y-77290787D01*
X138393035Y-77290787D01*
X138448753Y-77297064D01*
G37*
G36*
X147433772Y-76740211D02*
G01*
X147460717Y-76741388D01*
X147464017Y-76741910D01*
X147470307Y-76742264D01*
X147491150Y-76746207D01*
X147510954Y-76749344D01*
X147516194Y-76750946D01*
X147523175Y-76752267D01*
X147541590Y-76758710D01*
X147558968Y-76764024D01*
X147565563Y-76767099D01*
X147573961Y-76770038D01*
X147589678Y-76778344D01*
X147604470Y-76785242D01*
X147612077Y-76790182D01*
X147621532Y-76795179D01*
X147634426Y-76804696D01*
X147646581Y-76812589D01*
X147654791Y-76819726D01*
X147664823Y-76827130D01*
X147674894Y-76837201D01*
X147684472Y-76845527D01*
X147692797Y-76855104D01*
X147702870Y-76865177D01*
X147710274Y-76875209D01*
X147717410Y-76883418D01*
X147725301Y-76895569D01*
X147734821Y-76908468D01*
X147739819Y-76917925D01*
X147744757Y-76925529D01*
X147751651Y-76940313D01*
X147759962Y-76956039D01*
X147762902Y-76964440D01*
X147765975Y-76971031D01*
X147771283Y-76988393D01*
X147777733Y-77006825D01*
X147779054Y-77013811D01*
X147780655Y-77019045D01*
X147783787Y-77038822D01*
X147787736Y-77059693D01*
X147788089Y-77065990D01*
X147788611Y-77069282D01*
X147789784Y-77096157D01*
X147790000Y-77100000D01*
X147790000Y-78580000D01*
X147789783Y-78583852D01*
X147788611Y-78610717D01*
X147788089Y-78614007D01*
X147787736Y-78620307D01*
X147783786Y-78641182D01*
X147780655Y-78660954D01*
X147779055Y-78666185D01*
X147777733Y-78673175D01*
X147771281Y-78691612D01*
X147765975Y-78708968D01*
X147762903Y-78715555D01*
X147759962Y-78723961D01*
X147751647Y-78739694D01*
X147744757Y-78754470D01*
X147739821Y-78762069D01*
X147734821Y-78771532D01*
X147725295Y-78784438D01*
X147717410Y-78796581D01*
X147710279Y-78804783D01*
X147702870Y-78814823D01*
X147692791Y-78824901D01*
X147684472Y-78834472D01*
X147674901Y-78842791D01*
X147664823Y-78852870D01*
X147654783Y-78860279D01*
X147646581Y-78867410D01*
X147634438Y-78875295D01*
X147621532Y-78884821D01*
X147612069Y-78889821D01*
X147604470Y-78894757D01*
X147589694Y-78901647D01*
X147573961Y-78909962D01*
X147565555Y-78912903D01*
X147558968Y-78915975D01*
X147541612Y-78921281D01*
X147523175Y-78927733D01*
X147516185Y-78929055D01*
X147510954Y-78930655D01*
X147491182Y-78933786D01*
X147470307Y-78937736D01*
X147464007Y-78938089D01*
X147460717Y-78938611D01*
X147433846Y-78939783D01*
X147430000Y-78940000D01*
X146950000Y-78940000D01*
X146946151Y-78939783D01*
X146919282Y-78938611D01*
X146915990Y-78938089D01*
X146909693Y-78937736D01*
X146888822Y-78933787D01*
X146869045Y-78930655D01*
X146863811Y-78929054D01*
X146856825Y-78927733D01*
X146838393Y-78921283D01*
X146821031Y-78915975D01*
X146814440Y-78912902D01*
X146806039Y-78909962D01*
X146790313Y-78901651D01*
X146775529Y-78894757D01*
X146767925Y-78889819D01*
X146758468Y-78884821D01*
X146745569Y-78875301D01*
X146733418Y-78867410D01*
X146725209Y-78860274D01*
X146715177Y-78852870D01*
X146705104Y-78842797D01*
X146695527Y-78834472D01*
X146687201Y-78824894D01*
X146677130Y-78814823D01*
X146669726Y-78804791D01*
X146662589Y-78796581D01*
X146654696Y-78784426D01*
X146645179Y-78771532D01*
X146640182Y-78762077D01*
X146635242Y-78754470D01*
X146628344Y-78739678D01*
X146620038Y-78723961D01*
X146617099Y-78715563D01*
X146614024Y-78708968D01*
X146608710Y-78691590D01*
X146602267Y-78673175D01*
X146600946Y-78666194D01*
X146599344Y-78660954D01*
X146596207Y-78641150D01*
X146592264Y-78620307D01*
X146591910Y-78614017D01*
X146591388Y-78610717D01*
X146590211Y-78583766D01*
X146590000Y-78580000D01*
X146590000Y-77100000D01*
X146590211Y-77096231D01*
X146591388Y-77069282D01*
X146591910Y-77065980D01*
X146592264Y-77059693D01*
X146596206Y-77038854D01*
X146599344Y-77019045D01*
X146600946Y-77013802D01*
X146602267Y-77006825D01*
X146608708Y-76988416D01*
X146614024Y-76971031D01*
X146617100Y-76964432D01*
X146620038Y-76956039D01*
X146628340Y-76940329D01*
X146635242Y-76925529D01*
X146640185Y-76917916D01*
X146645179Y-76908468D01*
X146654690Y-76895580D01*
X146662589Y-76883418D01*
X146669731Y-76875201D01*
X146677130Y-76865177D01*
X146687194Y-76855112D01*
X146695527Y-76845527D01*
X146705112Y-76837194D01*
X146715177Y-76827130D01*
X146725201Y-76819731D01*
X146733418Y-76812589D01*
X146745580Y-76804690D01*
X146758468Y-76795179D01*
X146767916Y-76790185D01*
X146775529Y-76785242D01*
X146790329Y-76778340D01*
X146806039Y-76770038D01*
X146814432Y-76767100D01*
X146821031Y-76764024D01*
X146838416Y-76758708D01*
X146856825Y-76752267D01*
X146863802Y-76750946D01*
X146869045Y-76749344D01*
X146888854Y-76746206D01*
X146909693Y-76742264D01*
X146915980Y-76741910D01*
X146919282Y-76741388D01*
X146946237Y-76740211D01*
X146950000Y-76740000D01*
X147430000Y-76740000D01*
X147433772Y-76740211D01*
G37*
G36*
X147433772Y-73740211D02*
G01*
X147460717Y-73741388D01*
X147464017Y-73741910D01*
X147470307Y-73742264D01*
X147491150Y-73746207D01*
X147510954Y-73749344D01*
X147516194Y-73750946D01*
X147523175Y-73752267D01*
X147541590Y-73758710D01*
X147558968Y-73764024D01*
X147565563Y-73767099D01*
X147573961Y-73770038D01*
X147589678Y-73778344D01*
X147604470Y-73785242D01*
X147612077Y-73790182D01*
X147621532Y-73795179D01*
X147634426Y-73804696D01*
X147646581Y-73812589D01*
X147654791Y-73819726D01*
X147664823Y-73827130D01*
X147674894Y-73837201D01*
X147684472Y-73845527D01*
X147692797Y-73855104D01*
X147702870Y-73865177D01*
X147710274Y-73875209D01*
X147717410Y-73883418D01*
X147725301Y-73895569D01*
X147734821Y-73908468D01*
X147739819Y-73917925D01*
X147744757Y-73925529D01*
X147751651Y-73940313D01*
X147759962Y-73956039D01*
X147762902Y-73964440D01*
X147765975Y-73971031D01*
X147771283Y-73988393D01*
X147777733Y-74006825D01*
X147779054Y-74013811D01*
X147780655Y-74019045D01*
X147783787Y-74038822D01*
X147787736Y-74059693D01*
X147788089Y-74065990D01*
X147788611Y-74069282D01*
X147789784Y-74096157D01*
X147790000Y-74100000D01*
X147790000Y-75580000D01*
X147789783Y-75583852D01*
X147788611Y-75610717D01*
X147788089Y-75614007D01*
X147787736Y-75620307D01*
X147783786Y-75641182D01*
X147780655Y-75660954D01*
X147779055Y-75666185D01*
X147777733Y-75673175D01*
X147771281Y-75691612D01*
X147765975Y-75708968D01*
X147762903Y-75715555D01*
X147759962Y-75723961D01*
X147751647Y-75739694D01*
X147744757Y-75754470D01*
X147739821Y-75762069D01*
X147734821Y-75771532D01*
X147725295Y-75784438D01*
X147717410Y-75796581D01*
X147710279Y-75804783D01*
X147702870Y-75814823D01*
X147692791Y-75824901D01*
X147684472Y-75834472D01*
X147674901Y-75842791D01*
X147664823Y-75852870D01*
X147654783Y-75860279D01*
X147646581Y-75867410D01*
X147634438Y-75875295D01*
X147621532Y-75884821D01*
X147612069Y-75889821D01*
X147604470Y-75894757D01*
X147589694Y-75901647D01*
X147573961Y-75909962D01*
X147565555Y-75912903D01*
X147558968Y-75915975D01*
X147541612Y-75921281D01*
X147523175Y-75927733D01*
X147516185Y-75929055D01*
X147510954Y-75930655D01*
X147491182Y-75933786D01*
X147470307Y-75937736D01*
X147464007Y-75938089D01*
X147460717Y-75938611D01*
X147433846Y-75939783D01*
X147430000Y-75940000D01*
X146950000Y-75940000D01*
X146946151Y-75939783D01*
X146919282Y-75938611D01*
X146915990Y-75938089D01*
X146909693Y-75937736D01*
X146888822Y-75933787D01*
X146869045Y-75930655D01*
X146863811Y-75929054D01*
X146856825Y-75927733D01*
X146838393Y-75921283D01*
X146821031Y-75915975D01*
X146814440Y-75912902D01*
X146806039Y-75909962D01*
X146790313Y-75901651D01*
X146775529Y-75894757D01*
X146767925Y-75889819D01*
X146758468Y-75884821D01*
X146745569Y-75875301D01*
X146733418Y-75867410D01*
X146725209Y-75860274D01*
X146715177Y-75852870D01*
X146705104Y-75842797D01*
X146695527Y-75834472D01*
X146687201Y-75824894D01*
X146677130Y-75814823D01*
X146669726Y-75804791D01*
X146662589Y-75796581D01*
X146654696Y-75784426D01*
X146645179Y-75771532D01*
X146640182Y-75762077D01*
X146635242Y-75754470D01*
X146628344Y-75739678D01*
X146620038Y-75723961D01*
X146617099Y-75715563D01*
X146614024Y-75708968D01*
X146608710Y-75691590D01*
X146602267Y-75673175D01*
X146600946Y-75666194D01*
X146599344Y-75660954D01*
X146596207Y-75641150D01*
X146592264Y-75620307D01*
X146591910Y-75614017D01*
X146591388Y-75610717D01*
X146590211Y-75583766D01*
X146590000Y-75580000D01*
X146590000Y-74100000D01*
X146590211Y-74096231D01*
X146591388Y-74069282D01*
X146591910Y-74065980D01*
X146592264Y-74059693D01*
X146596206Y-74038854D01*
X146599344Y-74019045D01*
X146600946Y-74013802D01*
X146602267Y-74006825D01*
X146608708Y-73988416D01*
X146614024Y-73971031D01*
X146617100Y-73964432D01*
X146620038Y-73956039D01*
X146628340Y-73940329D01*
X146635242Y-73925529D01*
X146640185Y-73917916D01*
X146645179Y-73908468D01*
X146654690Y-73895580D01*
X146662589Y-73883418D01*
X146669731Y-73875201D01*
X146677130Y-73865177D01*
X146687194Y-73855112D01*
X146695527Y-73845527D01*
X146705112Y-73837194D01*
X146715177Y-73827130D01*
X146725201Y-73819731D01*
X146733418Y-73812589D01*
X146745580Y-73804690D01*
X146758468Y-73795179D01*
X146767916Y-73790185D01*
X146775529Y-73785242D01*
X146790329Y-73778340D01*
X146806039Y-73770038D01*
X146814432Y-73767100D01*
X146821031Y-73764024D01*
X146838416Y-73758708D01*
X146856825Y-73752267D01*
X146863802Y-73750946D01*
X146869045Y-73749344D01*
X146888854Y-73746206D01*
X146909693Y-73742264D01*
X146915980Y-73741910D01*
X146919282Y-73741388D01*
X146946237Y-73740211D01*
X146950000Y-73740000D01*
X147430000Y-73740000D01*
X147433772Y-73740211D01*
G37*
G36*
X129808753Y-73097064D02*
G01*
X129863418Y-73109541D01*
X129916342Y-73128060D01*
X129966859Y-73152388D01*
X130014336Y-73182220D01*
X130058173Y-73217179D01*
X130097821Y-73256827D01*
X130132780Y-73300664D01*
X130162612Y-73348141D01*
X130186940Y-73398658D01*
X130205459Y-73451582D01*
X130217936Y-73506247D01*
X130224213Y-73561965D01*
X130225000Y-73590000D01*
X130225000Y-74790000D01*
X130224213Y-74818035D01*
X130217936Y-74873753D01*
X130205459Y-74928418D01*
X130186940Y-74981342D01*
X130162612Y-75031859D01*
X130132780Y-75079336D01*
X130097821Y-75123173D01*
X130058173Y-75162821D01*
X130014336Y-75197780D01*
X129966859Y-75227612D01*
X129916342Y-75251940D01*
X129863418Y-75270459D01*
X129808753Y-75282936D01*
X129753035Y-75289213D01*
X129696965Y-75289213D01*
X129641247Y-75282936D01*
X129586582Y-75270459D01*
X129533658Y-75251940D01*
X129483141Y-75227612D01*
X129435664Y-75197780D01*
X129391827Y-75162821D01*
X129352179Y-75123173D01*
X129317220Y-75079336D01*
X129287388Y-75031859D01*
X129263060Y-74981342D01*
X129244541Y-74928418D01*
X129232064Y-74873753D01*
X129225787Y-74818035D01*
X129225000Y-74790000D01*
X129225000Y-73590000D01*
X129225787Y-73561965D01*
X129232064Y-73506247D01*
X129244541Y-73451582D01*
X129263060Y-73398658D01*
X129287388Y-73348141D01*
X129317220Y-73300664D01*
X129352179Y-73256827D01*
X129391827Y-73217179D01*
X129435664Y-73182220D01*
X129483141Y-73152388D01*
X129533658Y-73128060D01*
X129586582Y-73109541D01*
X129641247Y-73097064D01*
X129696965Y-73090787D01*
X129753035Y-73090787D01*
X129808753Y-73097064D01*
G37*
G36*
X138448753Y-73097064D02*
G01*
X138503418Y-73109541D01*
X138556342Y-73128060D01*
X138606859Y-73152388D01*
X138654336Y-73182220D01*
X138698173Y-73217179D01*
X138737821Y-73256827D01*
X138772780Y-73300664D01*
X138802612Y-73348141D01*
X138826940Y-73398658D01*
X138845459Y-73451582D01*
X138857936Y-73506247D01*
X138864213Y-73561965D01*
X138865000Y-73590000D01*
X138865000Y-74790000D01*
X138864213Y-74818035D01*
X138857936Y-74873753D01*
X138845459Y-74928418D01*
X138826940Y-74981342D01*
X138802612Y-75031859D01*
X138772780Y-75079336D01*
X138737821Y-75123173D01*
X138698173Y-75162821D01*
X138654336Y-75197780D01*
X138606859Y-75227612D01*
X138556342Y-75251940D01*
X138503418Y-75270459D01*
X138448753Y-75282936D01*
X138393035Y-75289213D01*
X138336965Y-75289213D01*
X138281247Y-75282936D01*
X138226582Y-75270459D01*
X138173658Y-75251940D01*
X138123141Y-75227612D01*
X138075664Y-75197780D01*
X138031827Y-75162821D01*
X137992179Y-75123173D01*
X137957220Y-75079336D01*
X137927388Y-75031859D01*
X137903060Y-74981342D01*
X137884541Y-74928418D01*
X137872064Y-74873753D01*
X137865787Y-74818035D01*
X137865000Y-74790000D01*
X137865000Y-73590000D01*
X137865787Y-73561965D01*
X137872064Y-73506247D01*
X137884541Y-73451582D01*
X137903060Y-73398658D01*
X137927388Y-73348141D01*
X137957220Y-73300664D01*
X137992179Y-73256827D01*
X138031827Y-73217179D01*
X138075664Y-73182220D01*
X138123141Y-73152388D01*
X138173658Y-73128060D01*
X138226582Y-73109541D01*
X138281247Y-73097064D01*
X138336965Y-73090787D01*
X138393035Y-73090787D01*
X138448753Y-73097064D01*
G37*
G36*
X157770000Y-74940000D02*
G01*
X156070000Y-74940000D01*
X156070000Y-73240000D01*
X157770000Y-73240000D01*
X157770000Y-74940000D01*
G37*
G36*
X159570947Y-73247272D02*
G01*
X159643974Y-73260148D01*
X159715600Y-73279341D01*
X159785281Y-73304702D01*
X159852486Y-73336041D01*
X159916705Y-73373117D01*
X159977447Y-73415650D01*
X160034252Y-73463314D01*
X160086686Y-73515748D01*
X160134350Y-73572553D01*
X160176883Y-73633295D01*
X160213959Y-73697514D01*
X160245298Y-73764719D01*
X160270659Y-73834400D01*
X160289852Y-73906026D01*
X160302728Y-73979053D01*
X160309191Y-74052924D01*
X160309191Y-74127076D01*
X160302728Y-74200947D01*
X160289852Y-74273974D01*
X160270659Y-74345600D01*
X160245298Y-74415281D01*
X160213959Y-74482486D01*
X160176883Y-74546705D01*
X160134350Y-74607447D01*
X160086686Y-74664252D01*
X160034252Y-74716686D01*
X159977447Y-74764350D01*
X159916705Y-74806883D01*
X159852486Y-74843959D01*
X159785281Y-74875298D01*
X159715600Y-74900659D01*
X159643974Y-74919852D01*
X159570947Y-74932728D01*
X159497076Y-74939191D01*
X159422924Y-74939191D01*
X159349053Y-74932728D01*
X159276026Y-74919852D01*
X159204400Y-74900659D01*
X159134719Y-74875298D01*
X159067514Y-74843959D01*
X159003295Y-74806883D01*
X158942553Y-74764350D01*
X158885748Y-74716686D01*
X158833314Y-74664252D01*
X158785650Y-74607447D01*
X158743117Y-74546705D01*
X158706041Y-74482486D01*
X158674702Y-74415281D01*
X158649341Y-74345600D01*
X158630148Y-74273974D01*
X158617272Y-74200947D01*
X158610809Y-74127076D01*
X158610809Y-74052924D01*
X158617272Y-73979053D01*
X158630148Y-73906026D01*
X158649341Y-73834400D01*
X158674702Y-73764719D01*
X158706041Y-73697514D01*
X158743117Y-73633295D01*
X158785650Y-73572553D01*
X158833314Y-73515748D01*
X158885748Y-73463314D01*
X158942553Y-73415650D01*
X159003295Y-73373117D01*
X159067514Y-73336041D01*
X159134719Y-73304702D01*
X159204400Y-73279341D01*
X159276026Y-73260148D01*
X159349053Y-73247272D01*
X159422924Y-73240809D01*
X159497076Y-73240809D01*
X159570947Y-73247272D01*
G37*
G36*
X162110947Y-73247272D02*
G01*
X162183974Y-73260148D01*
X162255600Y-73279341D01*
X162325281Y-73304702D01*
X162392486Y-73336041D01*
X162456705Y-73373117D01*
X162517447Y-73415650D01*
X162574252Y-73463314D01*
X162626686Y-73515748D01*
X162674350Y-73572553D01*
X162716883Y-73633295D01*
X162753959Y-73697514D01*
X162785298Y-73764719D01*
X162810659Y-73834400D01*
X162829852Y-73906026D01*
X162842728Y-73979053D01*
X162849191Y-74052924D01*
X162849191Y-74127076D01*
X162842728Y-74200947D01*
X162829852Y-74273974D01*
X162810659Y-74345600D01*
X162785298Y-74415281D01*
X162753959Y-74482486D01*
X162716883Y-74546705D01*
X162674350Y-74607447D01*
X162626686Y-74664252D01*
X162574252Y-74716686D01*
X162517447Y-74764350D01*
X162456705Y-74806883D01*
X162392486Y-74843959D01*
X162325281Y-74875298D01*
X162255600Y-74900659D01*
X162183974Y-74919852D01*
X162110947Y-74932728D01*
X162037076Y-74939191D01*
X161962924Y-74939191D01*
X161889053Y-74932728D01*
X161816026Y-74919852D01*
X161744400Y-74900659D01*
X161674719Y-74875298D01*
X161607514Y-74843959D01*
X161543295Y-74806883D01*
X161482553Y-74764350D01*
X161425748Y-74716686D01*
X161373314Y-74664252D01*
X161325650Y-74607447D01*
X161283117Y-74546705D01*
X161246041Y-74482486D01*
X161214702Y-74415281D01*
X161189341Y-74345600D01*
X161170148Y-74273974D01*
X161157272Y-74200947D01*
X161150809Y-74127076D01*
X161150809Y-74052924D01*
X161157272Y-73979053D01*
X161170148Y-73906026D01*
X161189341Y-73834400D01*
X161214702Y-73764719D01*
X161246041Y-73697514D01*
X161283117Y-73633295D01*
X161325650Y-73572553D01*
X161373314Y-73515748D01*
X161425748Y-73463314D01*
X161482553Y-73415650D01*
X161543295Y-73373117D01*
X161607514Y-73336041D01*
X161674719Y-73304702D01*
X161744400Y-73279341D01*
X161816026Y-73260148D01*
X161889053Y-73247272D01*
X161962924Y-73240809D01*
X162037076Y-73240809D01*
X162110947Y-73247272D01*
G37*
G36*
X164650947Y-73247272D02*
G01*
X164723974Y-73260148D01*
X164795600Y-73279341D01*
X164865281Y-73304702D01*
X164932486Y-73336041D01*
X164996705Y-73373117D01*
X165057447Y-73415650D01*
X165114252Y-73463314D01*
X165166686Y-73515748D01*
X165214350Y-73572553D01*
X165256883Y-73633295D01*
X165293959Y-73697514D01*
X165325298Y-73764719D01*
X165350659Y-73834400D01*
X165369852Y-73906026D01*
X165382728Y-73979053D01*
X165389191Y-74052924D01*
X165389191Y-74127076D01*
X165382728Y-74200947D01*
X165369852Y-74273974D01*
X165350659Y-74345600D01*
X165325298Y-74415281D01*
X165293959Y-74482486D01*
X165256883Y-74546705D01*
X165214350Y-74607447D01*
X165166686Y-74664252D01*
X165114252Y-74716686D01*
X165057447Y-74764350D01*
X164996705Y-74806883D01*
X164932486Y-74843959D01*
X164865281Y-74875298D01*
X164795600Y-74900659D01*
X164723974Y-74919852D01*
X164650947Y-74932728D01*
X164577076Y-74939191D01*
X164502924Y-74939191D01*
X164429053Y-74932728D01*
X164356026Y-74919852D01*
X164284400Y-74900659D01*
X164214719Y-74875298D01*
X164147514Y-74843959D01*
X164083295Y-74806883D01*
X164022553Y-74764350D01*
X163965748Y-74716686D01*
X163913314Y-74664252D01*
X163865650Y-74607447D01*
X163823117Y-74546705D01*
X163786041Y-74482486D01*
X163754702Y-74415281D01*
X163729341Y-74345600D01*
X163710148Y-74273974D01*
X163697272Y-74200947D01*
X163690809Y-74127076D01*
X163690809Y-74052924D01*
X163697272Y-73979053D01*
X163710148Y-73906026D01*
X163729341Y-73834400D01*
X163754702Y-73764719D01*
X163786041Y-73697514D01*
X163823117Y-73633295D01*
X163865650Y-73572553D01*
X163913314Y-73515748D01*
X163965748Y-73463314D01*
X164022553Y-73415650D01*
X164083295Y-73373117D01*
X164147514Y-73336041D01*
X164214719Y-73304702D01*
X164284400Y-73279341D01*
X164356026Y-73260148D01*
X164429053Y-73247272D01*
X164502924Y-73240809D01*
X164577076Y-73240809D01*
X164650947Y-73247272D01*
G37*
G36*
X167190947Y-73247272D02*
G01*
X167263974Y-73260148D01*
X167335600Y-73279341D01*
X167405281Y-73304702D01*
X167472486Y-73336041D01*
X167536705Y-73373117D01*
X167597447Y-73415650D01*
X167654252Y-73463314D01*
X167706686Y-73515748D01*
X167754350Y-73572553D01*
X167796883Y-73633295D01*
X167833959Y-73697514D01*
X167865298Y-73764719D01*
X167890659Y-73834400D01*
X167909852Y-73906026D01*
X167922728Y-73979053D01*
X167929191Y-74052924D01*
X167929191Y-74127076D01*
X167922728Y-74200947D01*
X167909852Y-74273974D01*
X167890659Y-74345600D01*
X167865298Y-74415281D01*
X167833959Y-74482486D01*
X167796883Y-74546705D01*
X167754350Y-74607447D01*
X167706686Y-74664252D01*
X167654252Y-74716686D01*
X167597447Y-74764350D01*
X167536705Y-74806883D01*
X167472486Y-74843959D01*
X167405281Y-74875298D01*
X167335600Y-74900659D01*
X167263974Y-74919852D01*
X167190947Y-74932728D01*
X167117076Y-74939191D01*
X167042924Y-74939191D01*
X166969053Y-74932728D01*
X166896026Y-74919852D01*
X166824400Y-74900659D01*
X166754719Y-74875298D01*
X166687514Y-74843959D01*
X166623295Y-74806883D01*
X166562553Y-74764350D01*
X166505748Y-74716686D01*
X166453314Y-74664252D01*
X166405650Y-74607447D01*
X166363117Y-74546705D01*
X166326041Y-74482486D01*
X166294702Y-74415281D01*
X166269341Y-74345600D01*
X166250148Y-74273974D01*
X166237272Y-74200947D01*
X166230809Y-74127076D01*
X166230809Y-74052924D01*
X166237272Y-73979053D01*
X166250148Y-73906026D01*
X166269341Y-73834400D01*
X166294702Y-73764719D01*
X166326041Y-73697514D01*
X166363117Y-73633295D01*
X166405650Y-73572553D01*
X166453314Y-73515748D01*
X166505748Y-73463314D01*
X166562553Y-73415650D01*
X166623295Y-73373117D01*
X166687514Y-73336041D01*
X166754719Y-73304702D01*
X166824400Y-73279341D01*
X166896026Y-73260148D01*
X166969053Y-73247272D01*
X167042924Y-73240809D01*
X167117076Y-73240809D01*
X167190947Y-73247272D01*
G37*
G36*
X169730947Y-73247272D02*
G01*
X169803974Y-73260148D01*
X169875600Y-73279341D01*
X169945281Y-73304702D01*
X170012486Y-73336041D01*
X170076705Y-73373117D01*
X170137447Y-73415650D01*
X170194252Y-73463314D01*
X170246686Y-73515748D01*
X170294350Y-73572553D01*
X170336883Y-73633295D01*
X170373959Y-73697514D01*
X170405298Y-73764719D01*
X170430659Y-73834400D01*
X170449852Y-73906026D01*
X170462728Y-73979053D01*
X170469191Y-74052924D01*
X170469191Y-74127076D01*
X170462728Y-74200947D01*
X170449852Y-74273974D01*
X170430659Y-74345600D01*
X170405298Y-74415281D01*
X170373959Y-74482486D01*
X170336883Y-74546705D01*
X170294350Y-74607447D01*
X170246686Y-74664252D01*
X170194252Y-74716686D01*
X170137447Y-74764350D01*
X170076705Y-74806883D01*
X170012486Y-74843959D01*
X169945281Y-74875298D01*
X169875600Y-74900659D01*
X169803974Y-74919852D01*
X169730947Y-74932728D01*
X169657076Y-74939191D01*
X169582924Y-74939191D01*
X169509053Y-74932728D01*
X169436026Y-74919852D01*
X169364400Y-74900659D01*
X169294719Y-74875298D01*
X169227514Y-74843959D01*
X169163295Y-74806883D01*
X169102553Y-74764350D01*
X169045748Y-74716686D01*
X168993314Y-74664252D01*
X168945650Y-74607447D01*
X168903117Y-74546705D01*
X168866041Y-74482486D01*
X168834702Y-74415281D01*
X168809341Y-74345600D01*
X168790148Y-74273974D01*
X168777272Y-74200947D01*
X168770809Y-74127076D01*
X168770809Y-74052924D01*
X168777272Y-73979053D01*
X168790148Y-73906026D01*
X168809341Y-73834400D01*
X168834702Y-73764719D01*
X168866041Y-73697514D01*
X168903117Y-73633295D01*
X168945650Y-73572553D01*
X168993314Y-73515748D01*
X169045748Y-73463314D01*
X169102553Y-73415650D01*
X169163295Y-73373117D01*
X169227514Y-73336041D01*
X169294719Y-73304702D01*
X169364400Y-73279341D01*
X169436026Y-73260148D01*
X169509053Y-73247272D01*
X169582924Y-73240809D01*
X169657076Y-73240809D01*
X169730947Y-73247272D01*
G37*
G36*
X172270947Y-73247272D02*
G01*
X172343974Y-73260148D01*
X172415600Y-73279341D01*
X172485281Y-73304702D01*
X172552486Y-73336041D01*
X172616705Y-73373117D01*
X172677447Y-73415650D01*
X172734252Y-73463314D01*
X172786686Y-73515748D01*
X172834350Y-73572553D01*
X172876883Y-73633295D01*
X172913959Y-73697514D01*
X172945298Y-73764719D01*
X172970659Y-73834400D01*
X172989852Y-73906026D01*
X173002728Y-73979053D01*
X173009191Y-74052924D01*
X173009191Y-74127076D01*
X173002728Y-74200947D01*
X172989852Y-74273974D01*
X172970659Y-74345600D01*
X172945298Y-74415281D01*
X172913959Y-74482486D01*
X172876883Y-74546705D01*
X172834350Y-74607447D01*
X172786686Y-74664252D01*
X172734252Y-74716686D01*
X172677447Y-74764350D01*
X172616705Y-74806883D01*
X172552486Y-74843959D01*
X172485281Y-74875298D01*
X172415600Y-74900659D01*
X172343974Y-74919852D01*
X172270947Y-74932728D01*
X172197076Y-74939191D01*
X172122924Y-74939191D01*
X172049053Y-74932728D01*
X171976026Y-74919852D01*
X171904400Y-74900659D01*
X171834719Y-74875298D01*
X171767514Y-74843959D01*
X171703295Y-74806883D01*
X171642553Y-74764350D01*
X171585748Y-74716686D01*
X171533314Y-74664252D01*
X171485650Y-74607447D01*
X171443117Y-74546705D01*
X171406041Y-74482486D01*
X171374702Y-74415281D01*
X171349341Y-74345600D01*
X171330148Y-74273974D01*
X171317272Y-74200947D01*
X171310809Y-74127076D01*
X171310809Y-74052924D01*
X171317272Y-73979053D01*
X171330148Y-73906026D01*
X171349341Y-73834400D01*
X171374702Y-73764719D01*
X171406041Y-73697514D01*
X171443117Y-73633295D01*
X171485650Y-73572553D01*
X171533314Y-73515748D01*
X171585748Y-73463314D01*
X171642553Y-73415650D01*
X171703295Y-73373117D01*
X171767514Y-73336041D01*
X171834719Y-73304702D01*
X171904400Y-73279341D01*
X171976026Y-73260148D01*
X172049053Y-73247272D01*
X172122924Y-73240809D01*
X172197076Y-73240809D01*
X172270947Y-73247272D01*
G37*
G36*
X174810947Y-73247272D02*
G01*
X174883974Y-73260148D01*
X174955600Y-73279341D01*
X175025281Y-73304702D01*
X175092486Y-73336041D01*
X175156705Y-73373117D01*
X175217447Y-73415650D01*
X175274252Y-73463314D01*
X175326686Y-73515748D01*
X175374350Y-73572553D01*
X175416883Y-73633295D01*
X175453959Y-73697514D01*
X175485298Y-73764719D01*
X175510659Y-73834400D01*
X175529852Y-73906026D01*
X175542728Y-73979053D01*
X175549191Y-74052924D01*
X175549191Y-74127076D01*
X175542728Y-74200947D01*
X175529852Y-74273974D01*
X175510659Y-74345600D01*
X175485298Y-74415281D01*
X175453959Y-74482486D01*
X175416883Y-74546705D01*
X175374350Y-74607447D01*
X175326686Y-74664252D01*
X175274252Y-74716686D01*
X175217447Y-74764350D01*
X175156705Y-74806883D01*
X175092486Y-74843959D01*
X175025281Y-74875298D01*
X174955600Y-74900659D01*
X174883974Y-74919852D01*
X174810947Y-74932728D01*
X174737076Y-74939191D01*
X174662924Y-74939191D01*
X174589053Y-74932728D01*
X174516026Y-74919852D01*
X174444400Y-74900659D01*
X174374719Y-74875298D01*
X174307514Y-74843959D01*
X174243295Y-74806883D01*
X174182553Y-74764350D01*
X174125748Y-74716686D01*
X174073314Y-74664252D01*
X174025650Y-74607447D01*
X173983117Y-74546705D01*
X173946041Y-74482486D01*
X173914702Y-74415281D01*
X173889341Y-74345600D01*
X173870148Y-74273974D01*
X173857272Y-74200947D01*
X173850809Y-74127076D01*
X173850809Y-74052924D01*
X173857272Y-73979053D01*
X173870148Y-73906026D01*
X173889341Y-73834400D01*
X173914702Y-73764719D01*
X173946041Y-73697514D01*
X173983117Y-73633295D01*
X174025650Y-73572553D01*
X174073314Y-73515748D01*
X174125748Y-73463314D01*
X174182553Y-73415650D01*
X174243295Y-73373117D01*
X174307514Y-73336041D01*
X174374719Y-73304702D01*
X174444400Y-73279341D01*
X174516026Y-73260148D01*
X174589053Y-73247272D01*
X174662924Y-73240809D01*
X174737076Y-73240809D01*
X174810947Y-73247272D01*
G37*
M02*
